<svg width="65" height="69" viewBox="0 0 65 69" fill="none" xmlns="http://www.w3.org/2000/svg">
<path d="M20.8105 6.3418L36.0387 19.8046L33.4024 26.1117L27.2358 18.6254L27.4026 19.4218L23.3739 23.1174L20.8105 6.3418Z" fill="#FAC704"/>
<path d="M27.6051 20.4181L31.3436 25.1538L18.1358 39.6352L7.07031 39.6954L27.6051 20.4181Z" fill="#FAC704"/>
<path d="M38.2386 17.627L36.6154 19.0953L32.7296 15.5349L49.3575 0L28.7276 57.049L25.0664 33.4188L29.2171 29.1047L30.5545 35.3972L38.2386 17.627Z" fill="#FAC704"/>
<path d="M41.6394 24.9636L38.9199 32.5676L44.7056 39.5373L58.089 39.5533L41.6394 24.9636Z" fill="#FAC704"/>
<path d="M0.28125 67.6468V62.5408H5.41284L6.19284 63.3038V67.6468H0.28125ZM4.32084 65.8041H2.05473V66.2749H4.44399V63.9127H2.04652V64.4078H4.32084V65.8041ZM6.73583 63.3769V67.6468H8.49288V65.8041H10.759V64.416H8.49288V63.9127H10.8821V67.6468H12.6392V63.3769L11.7935 62.5408H7.58151L6.73583 63.3769ZM13.1824 63.3363L14.0363 62.5408H19.1104V63.9127H17.0495V67.6468H15.2925V63.9127H13.1824V63.3363ZM19.653 63.3363L20.5069 62.5408H25.5809V63.9127H23.52V67.6468H21.7631V63.9127H19.653V63.3363ZM26.1235 62.5408H27.8887V66.2749H31.8708V67.6468H26.9774L26.1235 66.8512V62.5408ZM32.4098 66.8269L33.239 67.6468H38.3378V66.2749H34.175V65.7797H36.4329V64.3997H34.175V63.9127H38.3378V62.5408H33.2636L32.4098 63.3363V66.8269ZM38.8803 65.8041V63.3688L39.726 62.5408H44.8083V63.9127H40.6374V64.3997H42.9199V65.8041H38.8803ZM44.8083 66.8269L43.9791 67.6468H38.8803V66.2749H43.0431V64.3997H44.8083V66.8269ZM45.3509 63.3363L46.2048 62.5408H51.2789V63.9127H49.2181V67.6468H47.461V63.9127H45.3509V63.3363ZM51.8215 63.3769V67.6468H53.5785V65.8041H55.8446V64.416H53.5785V63.9127H55.9678V67.6468H57.7249V63.3769L56.8792 62.5408H52.6672L51.8215 63.3769ZM58.2681 62.5408V67.6468H60.0252V65.8041H62.2995V64.4078H60.0334V63.9127H62.4226V65.7148L63.178 67.6468H64.9433L64.1797 65.6174V63.3038L63.3997 62.5408H58.2681Z" fill="#FAC704"/>
</svg>
