<svg width="0" height="0" class="hidden">
    <symbol xmlns="http://www.w3.org/2000/svg" viewBox="0 0 65 69" id="logo">
        <g>
            <g>
                <path
                    d="M20.8105 6.3418L36.0387 19.8046L33.4024 26.1117L27.2358 18.6254L27.4026 19.4218L23.3739 23.1174L20.8105 6.3418Z"
                ></path>
                <path
                    d="M27.6051 20.418L31.3436 25.1536L18.1358 39.6351L7.07031 39.6953L27.6051 20.418Z"
                ></path>
                <path
                    d="M38.2386 17.627L36.6154 19.0953L32.7296 15.5349L49.3575 0L28.7276 57.049L25.0664 33.4188L29.2171 29.1047L30.5545 35.3972L38.2386 17.627Z"
                ></path>
                <path
                    d="M41.6394 24.9639L38.9199 32.5678L44.7056 39.5375L58.089 39.5535L41.6394 24.9639Z"
                ></path>
            </g>
            <path
                d="M0.28125 67.647V62.541H5.41284L6.19284 63.3041V67.647H0.28125ZM4.32084 65.8043H2.05473V66.2751H4.44399V63.9129H2.04652V64.4081H4.32084V65.8043ZM6.73583 63.3771V67.647H8.49288V65.8043H10.759V64.4162H8.49288V63.9129H10.8821V67.647H12.6392V63.3771L11.7935 62.541H7.58151L6.73583 63.3771ZM13.1824 63.3365L14.0363 62.541H19.1104V63.9129H17.0495V67.647H15.2925V63.9129H13.1824V63.3365ZM19.653 63.3365L20.5069 62.541H25.5809V63.9129H23.52V67.647H21.7631V63.9129H19.653V63.3365ZM26.1235 62.541H27.8887V66.2751H31.8708V67.647H26.9774L26.1235 66.8515V62.541ZM32.4098 66.8271L33.239 67.647H38.3378V66.2751H34.175V65.78H36.4329V64.4H34.175V63.9129H38.3378V62.541H33.2636L32.4098 63.3365V66.8271ZM38.8803 65.8043V63.369L39.726 62.541H44.8083V63.9129H40.6374V64.4H42.9199V65.8043H38.8803ZM44.8083 66.8271L43.9791 67.647H38.8803V66.2751H43.0431V64.4H44.8083V66.8271ZM45.3509 63.3365L46.2048 62.541H51.2789V63.9129H49.2181V67.647H47.461V63.9129H45.3509V63.3365ZM51.8215 63.3771V67.647H53.5785V65.8043H55.8446V64.4162H53.5785V63.9129H55.9678V67.647H57.7249V63.3771L56.8792 62.541H52.6672L51.8215 63.3771ZM58.2681 62.541V67.647H60.0252V65.8043H62.2995V64.4081H60.0334V63.9129H62.4226V65.715L63.178 67.647H64.9433L64.1797 65.6176V63.3041L63.3997 62.541H58.2681Z"
            ></path>
        </g>
    </symbol>
    <symbol xmlns="http://www.w3.org/2000/svg" viewBox="0 0 24 24" id="search">
        <g>
            <path id="Vector"
                d="M15.5014 13.9995H14.7114L14.4314 13.7295C15.0564 13.0035 15.5131 12.1483 15.769 11.2251C16.0248 10.3019 16.0735 9.33364 15.9114 8.38949C15.4414 5.60949 13.1214 3.38949 10.3214 3.04949C9.33706 2.92495 8.33723 3.02726 7.39846 3.34858C6.4597 3.66989 5.60688 4.20171 4.90527 4.90332C4.20366 5.60493 3.67185 6.45775 3.35053 7.39651C3.02921 8.33527 2.92691 9.3351 3.05144 10.3195C3.39144 13.1195 5.61144 15.4395 8.39144 15.9095C9.33559 16.0715 10.3039 16.0229 11.2271 15.767C12.1502 15.5112 13.0054 15.0544 13.7314 14.4295L14.0014 14.7095V15.4995L18.2514 19.7495C18.6614 20.1595 19.3314 20.1595 19.7414 19.7495C20.1514 19.3395 20.1514 18.6695 19.7414 18.2595L15.5014 13.9995ZM9.50144 13.9995C7.01144 13.9995 5.00144 11.9895 5.00144 9.49949C5.00144 7.00949 7.01144 4.99949 9.50144 4.99949C11.9914 4.99949 14.0014 7.00949 14.0014 9.49949C14.0014 11.9895 11.9914 13.9995 9.50144 13.9995Z"
            ></path>
        </g>
    </symbol>
    <symbol xmlns="http://www.w3.org/2000/svg" viewBox="0 0 26 26" id="plus-box">
        <g>
            <path id="Vector"
                d="M18.4167 14.0833H14.0833V18.4167H11.9167V14.0833H7.58333V11.9167H11.9167V7.58333H14.0833V11.9167H18.4167V14.0833ZM20.5833 3.25H5.41667C4.21417 3.25 3.25 4.21417 3.25 5.41667V20.5833C3.25 21.158 3.47827 21.7091 3.8846 22.1154C4.29093 22.5217 4.84203 22.75 5.41667 22.75H20.5833C21.158 22.75 21.7091 22.5217 22.1154 22.1154C22.5217 21.7091 22.75 21.158 22.75 20.5833V5.41667C22.75 4.84203 22.5217 4.29093 22.1154 3.8846C21.7091 3.47827 21.158 3.25 20.5833 3.25Z"
            ></path>
        </g>
    </symbol>
    <symbol xmlns="http://www.w3.org/2000/svg" viewBox="0 0 24 24" id="message">
        <g>
            <path id="Vector"
                d="M20 2H4C3.46957 2 2.96086 2.21071 2.58579 2.58579C2.21071 2.96086 2 3.46957 2 4V22L6 18H20C20.5304 18 21.0391 17.7893 21.4142 17.4142C21.7893 17.0391 22 16.5304 22 16V4C22 3.46957 21.7893 2.96086 21.4142 2.58579C21.0391 2.21071 20.5304 2 20 2ZM6 9H18V11H6V9ZM14 14H6V12H14V14ZM18 8H6V6H18"
            ></path>
        </g>
    </symbol>
    <symbol xmlns="http://www.w3.org/2000/svg" viewBox="0 0 26 26" id="bell">
        <g>
            <path id="Vector"
                d="M22.75 20.5827V21.666H3.25V20.5827L5.41667 18.416V11.916C5.41667 8.55768 7.61583 5.60018 10.8333 4.64685V4.33268C10.8333 3.75805 11.0616 3.20695 11.4679 2.80062C11.8743 2.39429 12.4254 2.16602 13 2.16602C13.5746 2.16602 14.1257 2.39429 14.5321 2.80062C14.9384 3.20695 15.1667 3.75805 15.1667 4.33268V4.64685C18.3842 5.60018 20.5833 8.55768 20.5833 11.916V18.416L22.75 20.5827ZM15.1667 22.7493C15.1667 23.324 14.9384 23.8751 14.5321 24.2814C14.1257 24.6877 13.5746 24.916 13 24.916C12.4254 24.916 11.8743 24.6877 11.4679 24.2814C11.0616 23.8751 10.8333 23.324 10.8333 22.7493"
            ></path>
        </g>
    </symbol>
    <symbol xmlns="http://www.w3.org/2000/svg" viewBox="0 0 36 36"
        id="newspaper">
        <g>
            <path
                d="M30 5H6C4.335 5 3 6.335 3 8V29C3 30.665 4.335 32 6 32H30C31.665 32 33 30.665 33 29V8C33 6.335 31.665 5 30 5ZM7.5 11H15V20H7.5V11ZM28.5 26H7.5V23H28.5V26ZM28.5 20H18V17H28.5V20ZM28.5 14H18V11H28.5V14Z"
            ></path>
        </g>
    </symbol>
    <symbol xmlns="http://www.w3.org/2000/svg" viewBox="0 0 36 36"
        id="controller">
        <g>
            <path
                d="M11.955 24L7.5 28.5C7.005 28.95 6.345 29.25 5.625 29.25C4.92881 29.25 4.26113 28.9734 3.76884 28.4812C3.27656 27.9889 3 27.3212 3 26.625V26.25L4.5 15.18C4.65121 13.4934 5.42751 11.9244 6.67644 10.7809C7.92537 9.63743 9.55668 9.00222 11.25 9H24.75C28.29 9 31.185 11.715 31.5 15.18L33 26.25V26.625C33 27.3212 32.7234 27.9889 32.2312 28.4812C31.7389 28.9734 31.0712 29.25 30.375 29.25C29.655 29.25 28.995 28.95 28.5 28.5L24.045 24H11.955ZM10.5 12V15H7.5V16.5H10.5V19.5H12V16.5H15V15H12V12H10.5ZM24.75 12C24.4516 12 24.1655 12.1185 23.9545 12.3295C23.7435 12.5405 23.625 12.8266 23.625 13.125C23.625 13.4234 23.7435 13.7095 23.9545 13.9205C24.1655 14.1315 24.4516 14.25 24.75 14.25C25.0484 14.25 25.3345 14.1315 25.5455 13.9205C25.7565 13.7095 25.875 13.4234 25.875 13.125C25.875 12.8266 25.7565 12.5405 25.5455 12.3295C25.3345 12.1185 25.0484 12 24.75 12ZM22.125 14.625C21.8266 14.625 21.5405 14.7435 21.3295 14.9545C21.1185 15.1655 21 15.4516 21 15.75C21 16.0484 21.1185 16.3345 21.3295 16.5455C21.5405 16.7565 21.8266 16.875 22.125 16.875C22.4234 16.875 22.7095 16.7565 22.9205 16.5455C23.1315 16.3345 23.25 16.0484 23.25 15.75C23.25 15.4516 23.1315 15.1655 22.9205 14.9545C22.7095 14.7435 22.4234 14.625 22.125 14.625ZM27.375 14.625C27.0766 14.625 26.7905 14.7435 26.5795 14.9545C26.3685 15.1655 26.25 15.4516 26.25 15.75C26.25 16.0484 26.3685 16.3345 26.5795 16.5455C26.7905 16.7565 27.0766 16.875 27.375 16.875C27.6734 16.875 27.9595 16.7565 28.1705 16.5455C28.3815 16.3345 28.5 16.0484 28.5 15.75C28.5 15.4516 28.3815 15.1655 28.1705 14.9545C27.9595 14.7435 27.6734 14.625 27.375 14.625ZM24.75 17.25C24.4516 17.25 24.1655 17.3685 23.9545 17.5795C23.7435 17.7905 23.625 18.0766 23.625 18.375C23.625 18.6734 23.7435 18.9595 23.9545 19.1705C24.1655 19.3815 24.4516 19.5 24.75 19.5C25.0484 19.5 25.3345 19.3815 25.5455 19.1705C25.7565 18.9595 25.875 18.6734 25.875 18.375C25.875 18.0766 25.7565 17.7905 25.5455 17.5795C25.3345 17.3685 25.0484 17.25 24.75 17.25Z"
            ></path>
        </g>
    </symbol>
    <symbol xmlns="http://www.w3.org/2000/svg" viewBox="0 0 36 36"
        id="cup">
        <g>
            <path
                d="M28.5 7.5H25.5V6C25.5 5.175 24.825 4.5 24 4.5H12C11.175 4.5 10.5 5.175 10.5 6V7.5H7.5C5.85 7.5 4.5 8.85 4.5 10.5V12C4.5 15.825 7.38 18.945 11.085 19.41C11.5594 20.534 12.3003 21.5257 13.2437 22.2993C14.1872 23.0728 15.3048 23.6051 16.5 23.85V28.5H12C11.175 28.5 10.5 29.175 10.5 30C10.5 30.825 11.175 31.5 12 31.5H24C24.825 31.5 25.5 30.825 25.5 30C25.5 29.175 24.825 28.5 24 28.5H19.5V23.85C20.6952 23.6051 21.8128 23.0728 22.7563 22.2993C23.6997 21.5257 24.4406 20.534 24.915 19.41C28.62 18.945 31.5 15.825 31.5 12V10.5C31.5 8.85 30.15 7.5 28.5 7.5ZM7.5 12V10.5H10.5V16.23C8.76 15.6 7.5 13.95 7.5 12ZM28.5 12C28.5 13.95 27.24 15.6 25.5 16.23V10.5H28.5V12Z"
            ></path>
        </g>
    </symbol>
    <symbol xmlns="http://www.w3.org/2000/svg" viewBox="0 0 36 36"
        id="people">
        <g>
            <path fill-rule="evenodd" clip-rule="evenodd"
                d="M25.0059 19.6953C27.0609 21.0903 28.5009 22.9803 28.5009 25.5003V30.0003H33.0009C33.8259 30.0003 34.5009 29.3253 34.5009 28.5003V25.5003C34.5009 22.2303 29.1459 20.2953 25.0059 19.6953Z"
            ></path>
            <path
                d="M13.5 18C16.8137 18 19.5 15.3137 19.5 12C19.5 8.68629 16.8137 6 13.5 6C10.1863 6 7.5 8.68629 7.5 12C7.5 15.3137 10.1863 18 13.5 18Z"
            ></path>
            <path fill-rule="evenodd" clip-rule="evenodd"
                d="M22.5 18C25.815 18 28.5 15.315 28.5 12C28.5 8.685 25.815 6 22.5 6C21.795 6 21.135 6.15 20.505 6.36C21.7958 7.95633 22.5 9.9471 22.5 12C22.5 14.0529 21.7958 16.0437 20.505 17.64C21.135 17.85 21.795 18 22.5 18ZM13.5 19.5C9.495 19.5 1.5 21.51 1.5 25.5V28.5C1.5 29.325 2.175 30 3 30H24C24.825 30 25.5 29.325 25.5 28.5V25.5C25.5 21.51 17.505 19.5 13.5 19.5Z"
            ></path>
        </g>
    </symbol>
    <symbol xmlns="http://www.w3.org/2000/svg" viewBox="0 0 24 24" id="arrow-down">
        <path
            d="M7.41 8.58008L12 13.1701L16.59 8.58008L18 10.0001L12 16.0001L6 10.0001L7.41 8.58008Z"
        ></path>
    </symbol>
    <symbol xmlns="http://www.w3.org/2000/svg" viewBox="0 0 36 36"
        id="person">
        <g>
            <path
                d="M18 18C21.315 18 24 15.315 24 12C24 8.685 21.315 6 18 6C14.685 6 12 8.685 12 12C12 15.315 14.685 18 18 18ZM18 21C13.995 21 6 23.01 6 27V28.5C6 29.325 6.675 30 7.5 30H28.5C29.325 30 30 29.325 30 28.5V27C30 23.01 22.005 21 18 21Z"></path>
        </g>
    </symbol>
    <symbol xmlns="http://www.w3.org/2000/svg" width="143" height="153" viewBox="0 0 143 153"
        fill="none" id="sign-logo">
        <g filter="url(#filter0_i_220_5813)">
            <path
                d="M45.7812 14.0625L79.2831 43.9148L73.4833 57.9L59.9169 41.3L60.2837 43.066L51.4207 51.2605L45.7812 14.0625Z"
                fill="#FAC704" />
            <path
                d="M60.7311 45.2754L68.9559 55.7762L39.8988 87.8872L15.5547 88.0207L60.7311 45.2754Z"
                fill="#FAC704" />
            <path
                d="M84.1273 39.0858L80.5563 42.3418L72.0074 34.4468L108.589 0L63.2031 126.5L55.1484 74.1025L64.2799 64.5365L67.2222 78.4895L84.1273 39.0858Z"
                fill="#FAC704" />
            <path
                d="M91.6079 55.3535L85.625 72.2145L98.3535 87.669L127.797 87.7045L91.6079 55.3535Z"
                fill="#FAC704" />
            <path
                d="M0.617188 150V138.678H11.9067L13.6227 140.37V150H0.617188ZM9.50427 145.914H4.51883V146.958H9.77522V141.72H4.50077V142.818H9.50427V145.914ZM14.8173 140.532V150H18.6828V145.914H23.6682V142.836H18.6828V141.72H23.9391V150H27.8047V140.532L25.9442 138.678H16.6778L14.8173 140.532ZM28.9996 140.442L30.8782 138.678H42.0412V141.72H37.5074V150H33.6419V141.72H28.9996V140.442ZM43.235 140.442L45.1135 138.678H56.2764V141.72H51.7425V150H47.8772V141.72H43.235V140.442ZM57.47 138.678H61.3536V146.958H70.1142V150H59.3486L57.47 148.236V138.678ZM71.2999 148.182L73.1243 150H84.3415V146.958H75.1835V145.86H80.1508V142.8H75.1835V141.72H84.3415V138.678H73.1785L71.2999 140.442V148.182ZM85.5352 145.914V140.514L87.3957 138.678H98.5768V141.72H89.4007V142.8H94.4222V145.914H85.5352ZM98.5768 148.182L96.7524 150H85.5352V146.958H94.6932V142.8H98.5768V148.182ZM99.7704 140.442L101.649 138.678H112.812V141.72H108.278V150H104.413V141.72H99.7704V140.442ZM114.006 140.532V150H117.871V145.914H122.857V142.836H117.871V141.72H123.128V150H126.993V140.532L125.133 138.678H115.866L114.006 140.532ZM128.188 138.678V150H132.054V145.914H137.057V142.818H132.072V141.72H137.328V145.716L138.99 150H142.874L141.194 145.5V140.37L139.478 138.678H128.188Z"
                fill="#FAC704" />
        </g>
        <defs>
            <filter id="filter0_i_220_5813" x="0" y="0" width="143" height="157"
                filterUnits="userSpaceOnUse" color-interpolation-filters="sRGB">
                <feFlood flood-opacity="0" result="BackgroundImageFix" />
                <feBlend mode="normal" in="SourceGraphic" in2="BackgroundImageFix" result="shape" />
                <feColorMatrix in="SourceAlpha" type="matrix"
                    values="0 0 0 0 0 0 0 0 0 0 0 0 0 0 0 0 0 0 127 0" result="hardAlpha" />
                <feOffset dy="4" />
                <feGaussianBlur stdDeviation="2" />
                <feComposite in2="hardAlpha" operator="arithmetic" k2="-1" k3="1" />
                <feColorMatrix type="matrix" values="0 0 0 0 0 0 0 0 0 0 0 0 0 0 0 0 0 0 0.25 0" />
                <feBlend mode="normal" in2="shape" result="effect1_innerShadow_220_5813" />
            </filter>
        </defs>
    </symbol>
    <symbol xmlns="http://www.w3.org/2000/svg" width="249" height="44" viewBox="0 0 249 44"
        fill="none" id="sign-btn">
        <path
            d="M233.682 0.499999L248.394 22L233.682 43.5L15.3181 43.5L0.605865 22L15.3181 0.499998L233.682 0.499999Z"
            fill="#FAC704" fill-opacity="0.1" stroke="#FAC704" />
    </symbol>
    <!-- Steam -->
    <symbol xmlns="http://www.w3.org/2000/svg" width="44" height="44" viewBox="0 0 44 44"
        fill="none" id="steam">
        <path
            d="M21.9974 3.66602C24.405 3.66602 26.789 4.14022 29.0133 5.06156C31.2376 5.98289 33.2586 7.33332 34.961 9.03572C36.6634 10.7381 38.0139 12.7592 38.9352 14.9835C39.8565 17.2078 40.3307 19.5918 40.3307 21.9993C40.3307 26.8617 38.3992 31.5248 34.961 34.963C31.5229 38.4011 26.8597 40.3327 21.9974 40.3327C13.5641 40.3327 6.50573 34.686 4.32406 27.0043L11.3457 29.901C11.5873 31.0749 12.226 32.1297 13.1544 32.8878C14.0827 33.6458 15.2439 34.0607 16.4424 34.0627C19.3024 34.0627 21.6307 31.7344 21.6307 28.8743V28.636L27.8641 24.181H28.0107C31.8241 24.181 34.9224 21.0827 34.9224 17.2693C34.9224 13.456 31.8241 10.3577 28.0107 10.3577C24.1974 10.3577 21.0807 13.456 21.0807 17.2693V17.361L16.7357 23.7043L16.4424 23.686C15.3607 23.686 14.3524 24.016 13.5274 24.5843L3.66406 20.5327C4.4524 11.091 12.3357 3.66602 21.9974 3.66602ZM15.1774 31.4777C16.6441 32.0827 18.3307 31.4044 18.9357 29.9377C19.5407 28.471 18.8441 26.8027 17.4141 26.1977L15.0674 25.226C15.9657 24.896 16.9741 24.8777 17.9274 25.281C18.8991 25.666 19.6507 26.4177 20.0357 27.3893C20.4391 28.3427 20.4391 29.406 20.0357 30.3593C19.2474 32.3393 16.9191 33.2927 14.9391 32.4677C14.0224 32.0827 13.3257 31.386 12.9407 30.561L15.1774 31.4777ZM32.6307 17.2693C32.6307 19.8177 30.5591 21.8893 28.0107 21.8893C26.7886 21.8845 25.6182 21.3956 24.7557 20.5297C23.8933 19.6638 23.4091 18.4915 23.4091 17.2693C23.4066 16.6644 23.524 16.0649 23.7544 15.5055C23.9848 14.9461 24.3237 14.4379 24.7515 14.0101C25.1792 13.5823 25.6875 13.2434 26.2469 13.013C26.8063 12.7826 27.4058 12.6653 28.0107 12.6677C29.2329 12.6677 30.4052 13.1519 31.2711 14.0144C32.137 14.8768 32.6259 16.0472 32.6307 17.2693ZM24.5641 17.2693C24.5641 19.176 26.1041 20.7344 28.0291 20.7344C29.9357 20.7344 31.4757 19.176 31.4757 17.2693C31.4757 15.3627 29.9357 13.8043 28.0291 13.8043C26.1041 13.8043 24.5641 15.3627 24.5641 17.2693Z"
            fill="#F8F8F8" />
    </symbol>
    <!-- Apple -->
    <symbol xmlns="http://www.w3.org/2000/svg" width="44" height="44" viewBox="0 0 44 44"
        fill="none" id="apple">
        <path
            d="M36.0505 30.8194C35.5428 32.0028 34.9156 33.1313 34.1786 34.1872C33.1941 35.5934 32.3856 36.5651 31.766 37.1059C30.8035 37.9896 29.7695 38.4442 28.664 38.4699C27.872 38.4699 26.915 38.2444 25.8003 37.7861C24.682 37.3296 23.6553 37.1059 22.7148 37.1059C21.7303 37.1059 20.6743 37.3296 19.5431 37.7861C18.4138 38.2444 17.5008 38.4846 16.8023 38.5066C15.7445 38.5524 14.6866 38.0867 13.6325 37.1059C12.9596 36.5192 12.1181 35.5109 11.108 34.0846C10.0263 32.5647 9.13715 30.7956 8.44048 28.7844C7.69431 26.6082 7.32031 24.5036 7.32031 22.4649C7.32031 20.1311 7.82448 18.1162 8.83465 16.4296C9.59868 15.1049 10.691 13.9994 12.0063 13.2194C13.3033 12.4415 14.784 12.0226 16.2963 12.0057C17.1396 12.0057 18.2451 12.2661 19.6146 12.7794C20.9841 13.2927 21.8641 13.5531 22.2473 13.5531C22.537 13.5531 23.5105 13.2469 25.1678 12.6401C26.7316 12.0772 28.0516 11.8444 29.1333 11.9361C32.0666 12.1726 34.2685 13.3276 35.7333 15.4102C33.1116 16.9997 31.8155 19.2236 31.8411 22.0781C31.8631 24.3019 32.6716 26.1517 34.2556 27.6202C34.9559 28.2904 35.773 28.8266 36.6665 29.2024C36.4721 29.7652 36.2668 30.3024 36.0505 30.8194ZM29.3276 4.36256C29.3276 6.10423 28.6896 7.73223 27.4228 9.2374C25.8901 11.0267 24.0385 12.0626 22.031 11.8994C22.0047 11.6804 21.9919 11.46 21.9925 11.2394C21.9925 9.56556 22.7185 7.77623 24.0146 6.3114C24.66 5.57073 25.4813 4.9529 26.4768 4.46156C27.4705 3.97756 28.4091 3.7099 29.2928 3.66406C29.3166 3.89873 29.3276 4.13156 29.3276 4.36256Z"
            fill="white" />
    </symbol>
    <!-- google -->
    <symbol xmlns="http://www.w3.org/2000/svg" width="35" height="36" viewBox="0 0 35 36"
        fill="none" id="google">
        <path
            d="M31.1359 16.65H17.763V20.745H27.2568C26.7755 26.46 22.1526 28.905 17.7776 28.905C12.1922 28.905 7.29219 24.375 7.29219 18C7.29219 11.85 11.9589 7.095 17.7922 7.095C22.2984 7.095 24.938 10.05 24.938 10.05L27.7089 7.08C27.7089 7.08 24.1505 3 17.6464 3C9.36302 3 2.96094 10.2 2.96094 18C2.96094 25.575 8.98385 33 17.8651 33C25.6672 33 31.3547 27.495 31.3547 19.365C31.3547 17.64 31.1359 16.65 31.1359 16.65Z"
            fill="#F8F8F8" />
    </symbol>
    <!-- facabooc -->
    <symbol xmlns="http://www.w3.org/2000/svg" width="40" height="40" viewBox="0 0 40 40"
        fill="none" id="facebook">
        <path
            d="M17.4463 35.995V21.4243H22.3618L23.0925 15.7194H17.4463V12.0856C17.4463 10.4394 17.905 9.3123 20.2676 9.3123H23.2614V4.22608C21.8048 4.06997 20.3406 3.9946 18.8756 4.0003C14.5307 4.0003 11.5476 6.65274 11.5476 11.5221V15.7087H6.66406V21.4136H11.5583V35.995H17.4463Z"
            fill="white" />
    </symbol>

</svg>