<svg width="0" height="0" class="hidden">
  <symbol xmlns="http://www.w3.org/2000/svg" viewBox="0 0 65 69" id="logo">
    <g>
      <g>
        <path
          d="M20.8105 6.3418L36.0387 19.8046L33.4024 26.1117L27.2358 18.6254L27.4026 19.4218L23.3739 23.1174L20.8105 6.3418Z"
        ></path>
        <path
          d="M27.6051 20.418L31.3436 25.1536L18.1358 39.6351L7.07031 39.6953L27.6051 20.418Z"
        ></path>
        <path
          d="M38.2386 17.627L36.6154 19.0953L32.7296 15.5349L49.3575 0L28.7276 57.049L25.0664 33.4188L29.2171 29.1047L30.5545 35.3972L38.2386 17.627Z"
        ></path>
        <path
          d="M41.6394 24.9639L38.9199 32.5678L44.7056 39.5375L58.089 39.5535L41.6394 24.9639Z"
        ></path>
      </g>
      <path
        d="M0.28125 67.647V62.541H5.41284L6.19284 63.3041V67.647H0.28125ZM4.32084 65.8043H2.05473V66.2751H4.44399V63.9129H2.04652V64.4081H4.32084V65.8043ZM6.73583 63.3771V67.647H8.49288V65.8043H10.759V64.4162H8.49288V63.9129H10.8821V67.647H12.6392V63.3771L11.7935 62.541H7.58151L6.73583 63.3771ZM13.1824 63.3365L14.0363 62.541H19.1104V63.9129H17.0495V67.647H15.2925V63.9129H13.1824V63.3365ZM19.653 63.3365L20.5069 62.541H25.5809V63.9129H23.52V67.647H21.7631V63.9129H19.653V63.3365ZM26.1235 62.541H27.8887V66.2751H31.8708V67.647H26.9774L26.1235 66.8515V62.541ZM32.4098 66.8271L33.239 67.647H38.3378V66.2751H34.175V65.78H36.4329V64.4H34.175V63.9129H38.3378V62.541H33.2636L32.4098 63.3365V66.8271ZM38.8803 65.8043V63.369L39.726 62.541H44.8083V63.9129H40.6374V64.4H42.9199V65.8043H38.8803ZM44.8083 66.8271L43.9791 67.647H38.8803V66.2751H43.0431V64.4H44.8083V66.8271ZM45.3509 63.3365L46.2048 62.541H51.2789V63.9129H49.2181V67.647H47.461V63.9129H45.3509V63.3365ZM51.8215 63.3771V67.647H53.5785V65.8043H55.8446V64.4162H53.5785V63.9129H55.9678V67.647H57.7249V63.3771L56.8792 62.541H52.6672L51.8215 63.3771ZM58.2681 62.541V67.647H60.0252V65.8043H62.2995V64.4081H60.0334V63.9129H62.4226V65.715L63.178 67.647H64.9433L64.1797 65.6176V63.3041L63.3997 62.541H58.2681Z"
      ></path>
    </g>
  </symbol>
  <symbol xmlns="http://www.w3.org/2000/svg" viewBox="0 0 24 24" id="search">
    <g>
      <path id="Vector"
        d="M15.5014 13.9995H14.7114L14.4314 13.7295C15.0564 13.0035 15.5131 12.1483 15.769 11.2251C16.0248 10.3019 16.0735 9.33364 15.9114 8.38949C15.4414 5.60949 13.1214 3.38949 10.3214 3.04949C9.33706 2.92495 8.33723 3.02726 7.39846 3.34858C6.4597 3.66989 5.60688 4.20171 4.90527 4.90332C4.20366 5.60493 3.67185 6.45775 3.35053 7.39651C3.02921 8.33527 2.92691 9.3351 3.05144 10.3195C3.39144 13.1195 5.61144 15.4395 8.39144 15.9095C9.33559 16.0715 10.3039 16.0229 11.2271 15.767C12.1502 15.5112 13.0054 15.0544 13.7314 14.4295L14.0014 14.7095V15.4995L18.2514 19.7495C18.6614 20.1595 19.3314 20.1595 19.7414 19.7495C20.1514 19.3395 20.1514 18.6695 19.7414 18.2595L15.5014 13.9995ZM9.50144 13.9995C7.01144 13.9995 5.00144 11.9895 5.00144 9.49949C5.00144 7.00949 7.01144 4.99949 9.50144 4.99949C11.9914 4.99949 14.0014 7.00949 14.0014 9.49949C14.0014 11.9895 11.9914 13.9995 9.50144 13.9995Z"
      ></path>
    </g>
  </symbol>
  <symbol xmlns="http://www.w3.org/2000/svg" viewBox="0 0 26 26" id="plus-box">
    <g>
      <path id="Vector"
        d="M18.4167 14.0833H14.0833V18.4167H11.9167V14.0833H7.58333V11.9167H11.9167V7.58333H14.0833V11.9167H18.4167V14.0833ZM20.5833 3.25H5.41667C4.21417 3.25 3.25 4.21417 3.25 5.41667V20.5833C3.25 21.158 3.47827 21.7091 3.8846 22.1154C4.29093 22.5217 4.84203 22.75 5.41667 22.75H20.5833C21.158 22.75 21.7091 22.5217 22.1154 22.1154C22.5217 21.7091 22.75 21.158 22.75 20.5833V5.41667C22.75 4.84203 22.5217 4.29093 22.1154 3.8846C21.7091 3.47827 21.158 3.25 20.5833 3.25Z"
      ></path>
    </g>
  </symbol>
  <symbol xmlns="http://www.w3.org/2000/svg" viewBox="0 0 24 24" id="message">
    <g>
      <path id="Vector"
        d="M20 2H4C3.46957 2 2.96086 2.21071 2.58579 2.58579C2.21071 2.96086 2 3.46957 2 4V22L6 18H20C20.5304 18 21.0391 17.7893 21.4142 17.4142C21.7893 17.0391 22 16.5304 22 16V4C22 3.46957 21.7893 2.96086 21.4142 2.58579C21.0391 2.21071 20.5304 2 20 2ZM6 9H18V11H6V9ZM14 14H6V12H14V14ZM18 8H6V6H18"
      ></path>
    </g>
  </symbol>
  <symbol xmlns="http://www.w3.org/2000/svg" viewBox="0 0 26 26" id="bell">
    <g>
      <path id="Vector"
        d="M22.75 20.5827V21.666H3.25V20.5827L5.41667 18.416V11.916C5.41667 8.55768 7.61583 5.60018 10.8333 4.64685V4.33268C10.8333 3.75805 11.0616 3.20695 11.4679 2.80062C11.8743 2.39429 12.4254 2.16602 13 2.16602C13.5746 2.16602 14.1257 2.39429 14.5321 2.80062C14.9384 3.20695 15.1667 3.75805 15.1667 4.33268V4.64685C18.3842 5.60018 20.5833 8.55768 20.5833 11.916V18.416L22.75 20.5827ZM15.1667 22.7493C15.1667 23.324 14.9384 23.8751 14.5321 24.2814C14.1257 24.6877 13.5746 24.916 13 24.916C12.4254 24.916 11.8743 24.6877 11.4679 24.2814C11.0616 23.8751 10.8333 23.324 10.8333 22.7493"
      ></path>
    </g>
  </symbol>
  <symbol xmlns="http://www.w3.org/2000/svg" viewBox="0 0 36 36"
    id="newspaper">
    <g>
      <path
        d="M30 5H6C4.335 5 3 6.335 3 8V29C3 30.665 4.335 32 6 32H30C31.665 32 33 30.665 33 29V8C33 6.335 31.665 5 30 5ZM7.5 11H15V20H7.5V11ZM28.5 26H7.5V23H28.5V26ZM28.5 20H18V17H28.5V20ZM28.5 14H18V11H28.5V14Z"
      ></path>
    </g>
  </symbol>
  <symbol xmlns="http://www.w3.org/2000/svg" viewBox="0 0 36 36"
    id="controller">
    <g>
      <path
        d="M11.955 24L7.5 28.5C7.005 28.95 6.345 29.25 5.625 29.25C4.92881 29.25 4.26113 28.9734 3.76884 28.4812C3.27656 27.9889 3 27.3212 3 26.625V26.25L4.5 15.18C4.65121 13.4934 5.42751 11.9244 6.67644 10.7809C7.92537 9.63743 9.55668 9.00222 11.25 9H24.75C28.29 9 31.185 11.715 31.5 15.18L33 26.25V26.625C33 27.3212 32.7234 27.9889 32.2312 28.4812C31.7389 28.9734 31.0712 29.25 30.375 29.25C29.655 29.25 28.995 28.95 28.5 28.5L24.045 24H11.955ZM10.5 12V15H7.5V16.5H10.5V19.5H12V16.5H15V15H12V12H10.5ZM24.75 12C24.4516 12 24.1655 12.1185 23.9545 12.3295C23.7435 12.5405 23.625 12.8266 23.625 13.125C23.625 13.4234 23.7435 13.7095 23.9545 13.9205C24.1655 14.1315 24.4516 14.25 24.75 14.25C25.0484 14.25 25.3345 14.1315 25.5455 13.9205C25.7565 13.7095 25.875 13.4234 25.875 13.125C25.875 12.8266 25.7565 12.5405 25.5455 12.3295C25.3345 12.1185 25.0484 12 24.75 12ZM22.125 14.625C21.8266 14.625 21.5405 14.7435 21.3295 14.9545C21.1185 15.1655 21 15.4516 21 15.75C21 16.0484 21.1185 16.3345 21.3295 16.5455C21.5405 16.7565 21.8266 16.875 22.125 16.875C22.4234 16.875 22.7095 16.7565 22.9205 16.5455C23.1315 16.3345 23.25 16.0484 23.25 15.75C23.25 15.4516 23.1315 15.1655 22.9205 14.9545C22.7095 14.7435 22.4234 14.625 22.125 14.625ZM27.375 14.625C27.0766 14.625 26.7905 14.7435 26.5795 14.9545C26.3685 15.1655 26.25 15.4516 26.25 15.75C26.25 16.0484 26.3685 16.3345 26.5795 16.5455C26.7905 16.7565 27.0766 16.875 27.375 16.875C27.6734 16.875 27.9595 16.7565 28.1705 16.5455C28.3815 16.3345 28.5 16.0484 28.5 15.75C28.5 15.4516 28.3815 15.1655 28.1705 14.9545C27.9595 14.7435 27.6734 14.625 27.375 14.625ZM24.75 17.25C24.4516 17.25 24.1655 17.3685 23.9545 17.5795C23.7435 17.7905 23.625 18.0766 23.625 18.375C23.625 18.6734 23.7435 18.9595 23.9545 19.1705C24.1655 19.3815 24.4516 19.5 24.75 19.5C25.0484 19.5 25.3345 19.3815 25.5455 19.1705C25.7565 18.9595 25.875 18.6734 25.875 18.375C25.875 18.0766 25.7565 17.7905 25.5455 17.5795C25.3345 17.3685 25.0484 17.25 24.75 17.25Z"
      ></path>
    </g>
  </symbol>
  <symbol xmlns="http://www.w3.org/2000/svg" viewBox="0 0 36 36"
    id="cup">
    <g>
      <path
        d="M28.5 7.5H25.5V6C25.5 5.175 24.825 4.5 24 4.5H12C11.175 4.5 10.5 5.175 10.5 6V7.5H7.5C5.85 7.5 4.5 8.85 4.5 10.5V12C4.5 15.825 7.38 18.945 11.085 19.41C11.5594 20.534 12.3003 21.5257 13.2437 22.2993C14.1872 23.0728 15.3048 23.6051 16.5 23.85V28.5H12C11.175 28.5 10.5 29.175 10.5 30C10.5 30.825 11.175 31.5 12 31.5H24C24.825 31.5 25.5 30.825 25.5 30C25.5 29.175 24.825 28.5 24 28.5H19.5V23.85C20.6952 23.6051 21.8128 23.0728 22.7563 22.2993C23.6997 21.5257 24.4406 20.534 24.915 19.41C28.62 18.945 31.5 15.825 31.5 12V10.5C31.5 8.85 30.15 7.5 28.5 7.5ZM7.5 12V10.5H10.5V16.23C8.76 15.6 7.5 13.95 7.5 12ZM28.5 12C28.5 13.95 27.24 15.6 25.5 16.23V10.5H28.5V12Z"
      ></path>
    </g>
  </symbol>
  <symbol xmlns="http://www.w3.org/2000/svg" viewBox="0 0 36 36"
    id="people">
    <g>
      <path fill-rule="evenodd" clip-rule="evenodd"
        d="M25.0059 19.6953C27.0609 21.0903 28.5009 22.9803 28.5009 25.5003V30.0003H33.0009C33.8259 30.0003 34.5009 29.3253 34.5009 28.5003V25.5003C34.5009 22.2303 29.1459 20.2953 25.0059 19.6953Z"
      ></path>
      <path
        d="M13.5 18C16.8137 18 19.5 15.3137 19.5 12C19.5 8.68629 16.8137 6 13.5 6C10.1863 6 7.5 8.68629 7.5 12C7.5 15.3137 10.1863 18 13.5 18Z"
      ></path>
      <path fill-rule="evenodd" clip-rule="evenodd"
        d="M22.5 18C25.815 18 28.5 15.315 28.5 12C28.5 8.685 25.815 6 22.5 6C21.795 6 21.135 6.15 20.505 6.36C21.7958 7.95633 22.5 9.9471 22.5 12C22.5 14.0529 21.7958 16.0437 20.505 17.64C21.135 17.85 21.795 18 22.5 18ZM13.5 19.5C9.495 19.5 1.5 21.51 1.5 25.5V28.5C1.5 29.325 2.175 30 3 30H24C24.825 30 25.5 29.325 25.5 28.5V25.5C25.5 21.51 17.505 19.5 13.5 19.5Z"
      ></path>
    </g>
  </symbol>
  <symbol xmlns="http://www.w3.org/2000/svg" viewBox="0 0 24 24" id="arrow-down">
    <path
      d="M7.41 8.58008L12 13.1701L16.59 8.58008L18 10.0001L12 16.0001L6 10.0001L7.41 8.58008Z"
    ></path>
  </symbol>
  <symbol xmlns="http://www.w3.org/2000/svg" viewBox="0 0 36 36"
    id="person">
    <g>
      <path
        d="M18 18C21.315 18 24 15.315 24 12C24 8.685 21.315 6 18 6C14.685 6 12 8.685 12 12C12 15.315 14.685 18 18 18ZM18 21C13.995 21 6 23.01 6 27V28.5C6 29.325 6.675 30 7.5 30H28.5C29.325 30 30 29.325 30 28.5V27C30 23.01 22.005 21 18 21Z"></path>
    </g>
  </symbol>
  <symbol xmlns="http://www.w3.org/2000/svg" width="143" height="153" viewBox="0 0 143 153"
    fill="none" id="sign-logo">
    <g filter="url(#filter0_i_220_5813)">
      <path
        d="M45.7812 14.0625L79.2831 43.9148L73.4833 57.9L59.9169 41.3L60.2837 43.066L51.4207 51.2605L45.7812 14.0625Z"
        fill="#FAC704" />
      <path
        d="M60.7311 45.2754L68.9559 55.7762L39.8988 87.8872L15.5547 88.0207L60.7311 45.2754Z"
        fill="#FAC704" />
      <path
        d="M84.1273 39.0858L80.5563 42.3418L72.0074 34.4468L108.589 0L63.2031 126.5L55.1484 74.1025L64.2799 64.5365L67.2222 78.4895L84.1273 39.0858Z"
        fill="#FAC704" />
      <path
        d="M91.6079 55.3535L85.625 72.2145L98.3535 87.669L127.797 87.7045L91.6079 55.3535Z"
        fill="#FAC704" />
      <path
        d="M0.617188 150V138.678H11.9067L13.6227 140.37V150H0.617188ZM9.50427 145.914H4.51883V146.958H9.77522V141.72H4.50077V142.818H9.50427V145.914ZM14.8173 140.532V150H18.6828V145.914H23.6682V142.836H18.6828V141.72H23.9391V150H27.8047V140.532L25.9442 138.678H16.6778L14.8173 140.532ZM28.9996 140.442L30.8782 138.678H42.0412V141.72H37.5074V150H33.6419V141.72H28.9996V140.442ZM43.235 140.442L45.1135 138.678H56.2764V141.72H51.7425V150H47.8772V141.72H43.235V140.442ZM57.47 138.678H61.3536V146.958H70.1142V150H59.3486L57.47 148.236V138.678ZM71.2999 148.182L73.1243 150H84.3415V146.958H75.1835V145.86H80.1508V142.8H75.1835V141.72H84.3415V138.678H73.1785L71.2999 140.442V148.182ZM85.5352 145.914V140.514L87.3957 138.678H98.5768V141.72H89.4007V142.8H94.4222V145.914H85.5352ZM98.5768 148.182L96.7524 150H85.5352V146.958H94.6932V142.8H98.5768V148.182ZM99.7704 140.442L101.649 138.678H112.812V141.72H108.278V150H104.413V141.72H99.7704V140.442ZM114.006 140.532V150H117.871V145.914H122.857V142.836H117.871V141.72H123.128V150H126.993V140.532L125.133 138.678H115.866L114.006 140.532ZM128.188 138.678V150H132.054V145.914H137.057V142.818H132.072V141.72H137.328V145.716L138.99 150H142.874L141.194 145.5V140.37L139.478 138.678H128.188Z"
        fill="#FAC704" />
    </g>
    <defs>
      <filter id="filter0_i_220_5813" x="0" y="0" width="143" height="157"
        filterUnits="userSpaceOnUse" color-interpolation-filters="sRGB">
        <feFlood flood-opacity="0" result="BackgroundImageFix" />
        <feBlend mode="normal" in="SourceGraphic" in2="BackgroundImageFix" result="shape" />
        <feColorMatrix in="SourceAlpha" type="matrix"
          values="0 0 0 0 0 0 0 0 0 0 0 0 0 0 0 0 0 0 127 0" result="hardAlpha" />
        <feOffset dy="4" />
        <feGaussianBlur stdDeviation="2" />
        <feComposite in2="hardAlpha" operator="arithmetic" k2="-1" k3="1" />
        <feColorMatrix type="matrix" values="0 0 0 0 0 0 0 0 0 0 0 0 0 0 0 0 0 0 0.25 0" />
        <feBlend mode="normal" in2="shape" result="effect1_innerShadow_220_5813" />
      </filter>
    </defs>
  </symbol>
  <symbol xmlns="http://www.w3.org/2000/svg" width="249" height="44" viewBox="0 0 249 44"
    fill="none" id="sign-btn">
    <path
      d="M233.682 0.499999L248.394 22L233.682 43.5L15.3181 43.5L0.605865 22L15.3181 0.499998L233.682 0.499999Z"
      fill="#FAC704" fill-opacity="0.1" stroke="#FAC704" />
  </symbol>
  <!-- Steam -->
  <symbol xmlns="http://www.w3.org/2000/svg" width="44" height="44" viewBox="0 0 44 44"
    fill="none" id="steam">
    <path
      d="M21.9974 3.66602C24.405 3.66602 26.789 4.14022 29.0133 5.06156C31.2376 5.98289 33.2586 7.33332 34.961 9.03572C36.6634 10.7381 38.0139 12.7592 38.9352 14.9835C39.8565 17.2078 40.3307 19.5918 40.3307 21.9993C40.3307 26.8617 38.3992 31.5248 34.961 34.963C31.5229 38.4011 26.8597 40.3327 21.9974 40.3327C13.5641 40.3327 6.50573 34.686 4.32406 27.0043L11.3457 29.901C11.5873 31.0749 12.226 32.1297 13.1544 32.8878C14.0827 33.6458 15.2439 34.0607 16.4424 34.0627C19.3024 34.0627 21.6307 31.7344 21.6307 28.8743V28.636L27.8641 24.181H28.0107C31.8241 24.181 34.9224 21.0827 34.9224 17.2693C34.9224 13.456 31.8241 10.3577 28.0107 10.3577C24.1974 10.3577 21.0807 13.456 21.0807 17.2693V17.361L16.7357 23.7043L16.4424 23.686C15.3607 23.686 14.3524 24.016 13.5274 24.5843L3.66406 20.5327C4.4524 11.091 12.3357 3.66602 21.9974 3.66602ZM15.1774 31.4777C16.6441 32.0827 18.3307 31.4044 18.9357 29.9377C19.5407 28.471 18.8441 26.8027 17.4141 26.1977L15.0674 25.226C15.9657 24.896 16.9741 24.8777 17.9274 25.281C18.8991 25.666 19.6507 26.4177 20.0357 27.3893C20.4391 28.3427 20.4391 29.406 20.0357 30.3593C19.2474 32.3393 16.9191 33.2927 14.9391 32.4677C14.0224 32.0827 13.3257 31.386 12.9407 30.561L15.1774 31.4777ZM32.6307 17.2693C32.6307 19.8177 30.5591 21.8893 28.0107 21.8893C26.7886 21.8845 25.6182 21.3956 24.7557 20.5297C23.8933 19.6638 23.4091 18.4915 23.4091 17.2693C23.4066 16.6644 23.524 16.0649 23.7544 15.5055C23.9848 14.9461 24.3237 14.4379 24.7515 14.0101C25.1792 13.5823 25.6875 13.2434 26.2469 13.013C26.8063 12.7826 27.4058 12.6653 28.0107 12.6677C29.2329 12.6677 30.4052 13.1519 31.2711 14.0144C32.137 14.8768 32.6259 16.0472 32.6307 17.2693ZM24.5641 17.2693C24.5641 19.176 26.1041 20.7344 28.0291 20.7344C29.9357 20.7344 31.4757 19.176 31.4757 17.2693C31.4757 15.3627 29.9357 13.8043 28.0291 13.8043C26.1041 13.8043 24.5641 15.3627 24.5641 17.2693Z"
      fill="#F8F8F8" />
  </symbol>
  <!-- Apple -->
  <symbol xmlns="http://www.w3.org/2000/svg" width="44" height="44" viewBox="0 0 44 44"
    fill="none" id="apple">
    <path
      d="M36.0505 30.8194C35.5428 32.0028 34.9156 33.1313 34.1786 34.1872C33.1941 35.5934 32.3856 36.5651 31.766 37.1059C30.8035 37.9896 29.7695 38.4442 28.664 38.4699C27.872 38.4699 26.915 38.2444 25.8003 37.7861C24.682 37.3296 23.6553 37.1059 22.7148 37.1059C21.7303 37.1059 20.6743 37.3296 19.5431 37.7861C18.4138 38.2444 17.5008 38.4846 16.8023 38.5066C15.7445 38.5524 14.6866 38.0867 13.6325 37.1059C12.9596 36.5192 12.1181 35.5109 11.108 34.0846C10.0263 32.5647 9.13715 30.7956 8.44048 28.7844C7.69431 26.6082 7.32031 24.5036 7.32031 22.4649C7.32031 20.1311 7.82448 18.1162 8.83465 16.4296C9.59868 15.1049 10.691 13.9994 12.0063 13.2194C13.3033 12.4415 14.784 12.0226 16.2963 12.0057C17.1396 12.0057 18.2451 12.2661 19.6146 12.7794C20.9841 13.2927 21.8641 13.5531 22.2473 13.5531C22.537 13.5531 23.5105 13.2469 25.1678 12.6401C26.7316 12.0772 28.0516 11.8444 29.1333 11.9361C32.0666 12.1726 34.2685 13.3276 35.7333 15.4102C33.1116 16.9997 31.8155 19.2236 31.8411 22.0781C31.8631 24.3019 32.6716 26.1517 34.2556 27.6202C34.9559 28.2904 35.773 28.8266 36.6665 29.2024C36.4721 29.7652 36.2668 30.3024 36.0505 30.8194ZM29.3276 4.36256C29.3276 6.10423 28.6896 7.73223 27.4228 9.2374C25.8901 11.0267 24.0385 12.0626 22.031 11.8994C22.0047 11.6804 21.9919 11.46 21.9925 11.2394C21.9925 9.56556 22.7185 7.77623 24.0146 6.3114C24.66 5.57073 25.4813 4.9529 26.4768 4.46156C27.4705 3.97756 28.4091 3.7099 29.2928 3.66406C29.3166 3.89873 29.3276 4.13156 29.3276 4.36256Z"
      fill="white" />
  </symbol>
  <!-- google -->
  <symbol xmlns="http://www.w3.org/2000/svg" width="35" height="36" viewBox="0 0 35 36"
    fill="none" id="google">
    <path
      d="M31.1359 16.65H17.763V20.745H27.2568C26.7755 26.46 22.1526 28.905 17.7776 28.905C12.1922 28.905 7.29219 24.375 7.29219 18C7.29219 11.85 11.9589 7.095 17.7922 7.095C22.2984 7.095 24.938 10.05 24.938 10.05L27.7089 7.08C27.7089 7.08 24.1505 3 17.6464 3C9.36302 3 2.96094 10.2 2.96094 18C2.96094 25.575 8.98385 33 17.8651 33C25.6672 33 31.3547 27.495 31.3547 19.365C31.3547 17.64 31.1359 16.65 31.1359 16.65Z"
      fill="#F8F8F8" />
  </symbol>
  <!-- facabook -->
  <symbol xmlns="http://www.w3.org/2000/svg" width="40" height="40" viewBox="0 0 40 40"
    fill="none" id="facebook">
    <path
      d="M17.4463 35.995V21.4243H22.3618L23.0925 15.7194H17.4463V12.0856C17.4463 10.4394 17.905 9.3123 20.2676 9.3123H23.2614V4.22608C21.8048 4.06997 20.3406 3.9946 18.8756 4.0003C14.5307 4.0003 11.5476 6.65274 11.5476 11.5221V15.7087H6.66406V21.4136H11.5583V35.995H17.4463Z"
      fill="white" />
  </symbol>
  <!-- view -->
  <symbol xmlns="http://www.w3.org/2000/svg" width="20" height="20" viewBox="0 0 20 20"
    fill="none" id="view">
    <path
      d="M10.0026 5.41667C11.5349 5.41157 13.0375 5.83899 14.3377 6.64977C15.6379 7.46056 16.6829 8.6218 17.3526 10C15.9776 12.8083 13.1693 14.5833 10.0026 14.5833C6.83594 14.5833 4.0276 12.8083 2.6526 10C3.32229 8.6218 4.3673 7.46056 5.6675 6.64977C6.96771 5.83899 8.47032 5.41157 10.0026 5.41667ZM10.0026 3.75C5.83594 3.75 2.2776 6.34167 0.835938 10C2.2776 13.6583 5.83594 16.25 10.0026 16.25C14.1693 16.25 17.7276 13.6583 19.1693 10C17.7276 6.34167 14.1693 3.75 10.0026 3.75ZM10.0026 7.91667C10.5551 7.91667 11.085 8.13616 11.4757 8.52686C11.8664 8.91756 12.0859 9.44747 12.0859 10C12.0859 10.5525 11.8664 11.0824 11.4757 11.4731C11.085 11.8638 10.5551 12.0833 10.0026 12.0833C9.45007 12.0833 8.92017 11.8638 8.52946 11.4731C8.13876 11.0824 7.91927 10.5525 7.91927 10C7.91927 9.44747 8.13876 8.91756 8.52946 8.52686C8.92017 8.13616 9.45007 7.91667 10.0026 7.91667ZM10.0026 6.25C7.93594 6.25 6.2526 7.93333 6.2526 10C6.2526 12.0667 7.93594 13.75 10.0026 13.75C12.0693 13.75 13.7526 12.0667 13.7526 10C13.7526 7.93333 12.0693 6.25 10.0026 6.25Z"
      fill="#BFBFBF" />
  </symbol>
  <!-- swiper arrow -->
  <symbol xmlns="http://www.w3.org/2000/svg" width="68" height="68" viewBox="0 0 68 68"
    fill="none" id="swiper-arrow">
    <path
      d="M24.3409 21.0233L37.3176 34L24.3409 47.005L28.3359 51L45.3359 34L28.3359 17L24.3409 21.0233Z"
      fill="#F8F8F8" fill-opacity="0.6" />
  </symbol>

  <symbol xmlns="http://www.w3.org/2000/svg" viewBox="0 0 24 19" id="auto-selction">
    <g id="mdi:account-multiple-check">
      <path
        id="Vector"
        d="M19 17V19H7V17C7 17 7 13 13 13C19 13 19 17 19 17ZM16 8C16 7.40666 15.8241 6.82664 15.4944 6.33329C15.1648 5.83994 14.6962 5.45543 14.1481 5.22836C13.5999 5.0013 12.9967 4.94189 12.4147 5.05765C11.8328 5.1734 11.2982 5.45912 10.8787 5.87868C10.4591 6.29824 10.1734 6.83279 10.0576 7.41473C9.94189 7.99667 10.0013 8.59987 10.2284 9.14805C10.4554 9.69623 10.8399 10.1648 11.3333 10.4944C11.8266 10.8241 12.4067 11 13 11C13.7956 11 14.5587 10.6839 15.1213 10.1213C15.6839 9.55871 16 8.79565 16 8ZM19.2 13.06C19.7466 13.5643 20.1873 14.1724 20.4964 14.8489C20.8054 15.5254 20.9766 16.2566 21 17V19H24V17C24 17 24 13.55 19.2 13.06ZM18 5C17.6979 5.00018 17.3976 5.04741 17.11 5.14C17.6951 5.97897 18.0087 6.97718 18.0087 8C18.0087 9.02282 17.6951 10.021 17.11 10.86C17.3976 10.9526 17.6979 10.9998 18 11C18.7956 11 19.5587 10.6839 20.1213 10.1213C20.6839 9.55871 21 8.79565 21 8C21 7.20435 20.6839 6.44129 20.1213 5.87868C19.5587 5.31607 18.7956 5 18 5ZM7.34 8.92L8.5 10.33L3.75 15.08L1 12.08L2.16 10.92L3.75 12.5L7.34 8.92Z"
      />
    </g>
  </symbol>
  <symbol xmlns="http://www.w3.org/2000/svg" viewBox="0 0 17.333334 17.333334" id="chat">
    <path
      d="M11.4993 2.33268V8.16602H3.30768L2.33268 9.14102V2.33268H11.4993ZM12.3327 0.666016H1.49935C1.27834 0.666016 1.06637 0.753813 0.910093 0.910093C0.753813 1.06637 0.666016 1.27834 0.666016 1.49935V13.166L3.99935 9.83268H12.3327C12.5537 9.83268 12.7657 9.74489 12.9219 9.5886C13.0782 9.43232 13.166 9.22036 13.166 8.99935V1.49935C13.166 1.27834 13.0782 1.06637 12.9219 0.910093C12.7657 0.753813 12.5537 0.666016 12.3327 0.666016ZM16.4993 3.99935H14.8327V11.4993H3.99935V13.166C3.99935 13.387 4.08715 13.599 4.24343 13.7553C4.39971 13.9116 4.61167 13.9993 4.83268 13.9993H13.9993L17.3327 17.3327V4.83268C17.3327 4.61167 17.2449 4.39971 17.0886 4.24343C16.9323 4.08715 16.7204 3.99935 16.4993 3.99935Z"
    />
  </symbol>
  <symbol xmlns="http://www.w3.org/2000/svg" viewBox="0 0 18 14" id="check-mark">
    <path
      d="M18 2.00009L6 14.0001L0.5 8.50009L1.91 7.09009L6 11.1701L16.59 0.590088L18 2.00009Z"
    />
  </symbol>
  <symbol xmlns="http://www.w3.org/2000/svg" viewBox="0 0 14 14" id="criss-cross">
    <path
      d="M14 1.41L12.59 0L7 5.59L1.41 0L0 1.41L5.59 7L0 12.59L1.41 14L7 8.41L12.59 14L14 12.59L8.41 7L14 1.41Z" />
  </symbol>
  <symbol xmlns="http://www.w3.org/2000/svg" viewBox="0 0 28 28" id="enter-message">
    <g id="Group 157">
      <path
        id="Arrow 1"
        d="M14.5303 7.46967C14.2374 7.17678 13.7626 7.17678 13.4697 7.46967L8.6967 12.2426C8.40381 12.5355 8.40381 13.0104 8.6967 13.3033C8.98959 13.5962 9.46447 13.5962 9.75736 13.3033L14 9.06066L18.2426 13.3033C18.5355 13.5962 19.0104 13.5962 19.3033 13.3033C19.5962 13.0104 19.5962 12.5355 19.3033 12.2426L14.5303 7.46967ZM14.75 20L14.75 8L13.25 8L13.25 20L14.75 20Z"
      />
    </g>
  </symbol>
  <symbol xmlns="http://www.w3.org/2000/svg" viewBox="0 0 17 18" id="filters">
    <g id="ic:baseline-settings-input-component">
      <path
        id="Vector"
        d="M4.72727 3.68182C4.72727 3.30682 4.42045 3 4.04545 3C3.67045 3 3.36364 3.30682 3.36364 3.68182V6.40909H2V10.5H6.09091V6.40909H4.72727V3.68182ZM7.45455 13.2273C7.45455 14.1136 8.02727 14.8636 8.81818 15.15V18H10.1818V15.15C10.9727 14.8705 11.5455 14.1205 11.5455 13.2273V11.8636H7.45455V13.2273ZM2 13.2273C2 14.1136 2.57273 14.8636 3.36364 15.15V18H4.72727V15.15C5.51818 14.8636 6.09091 14.1136 6.09091 13.2273V11.8636H2V13.2273ZM15.6364 6.40909V3.68182C15.6364 3.30682 15.3295 3 14.9545 3C14.5795 3 14.2727 3.30682 14.2727 3.68182V6.40909H12.9091V10.5H17V6.40909H15.6364ZM10.1818 3.68182C10.1818 3.30682 9.875 3 9.5 3C9.125 3 8.81818 3.30682 8.81818 3.68182V6.40909H7.45455V10.5H11.5455V6.40909H10.1818V3.68182ZM12.9091 13.2273C12.9091 14.1136 13.4818 14.8636 14.2727 15.15V18H15.6364V15.15C16.4273 14.8705 17 14.1205 17 13.2273V11.8636H12.9091V13.2273Z"
      />
    </g>
  </symbol>
  <symbol xmlns="http://www.w3.org/2000/svg" viewBox="0 0 21 21" id="fulli_network-strength">
    <g id="mdi:network-strength-4">
      <path id="Vector" d="M1 21H21V1" />
    </g>
  </symbol>
  <symbol xmlns="http://www.w3.org/2000/svg" viewBox="0 0 26.250668 23.750666" id="grid-view">
    <g id="ic:baseline-view-module">
      <path
        id="Vector"
        d="M18.3375 6.25V14.375H11.6625V6.25H18.3375ZM19.5875 14.375H26.25V6.25H19.5875V14.375ZM18.3375 23.75V15.625H11.6625V23.75H18.3375ZM19.5875 15.625V23.75H26.25V15.625H19.5875ZM10.4125 15.625H3.75V23.75H10.4125V15.625ZM10.4125 14.375V6.25H3.75V14.375H10.4125Z"
      />
    </g>
  </symbol>
  <symbol xmlns="http://www.w3.org/2000/svg" viewBox="0 0 21 21" id="haf_network-strength">
    <g id="mdi:network-strength-2">
      <path id="Vector" d="M1 21H21V1L1 21ZM19 5.83V19H13V11.83" />
    </g>
  </symbol>
  <symbol xmlns="http://www.w3.org/2000/svg" viewBox="0 0 21.449333 21.018667" id="message-alert">
    <path
      d="M12.0443 8.47755H9.95423V4.29737H12.0443V8.47755ZM12.0443 10.5676H9.95423V12.6577H12.0443V10.5676ZM21.4497 2.20728V14.7478C21.4497 15.3021 21.2295 15.8338 20.8376 16.2257C20.4456 16.6177 19.914 16.8379 19.3596 16.8379H4.72901L0.548828 21.0181V2.20728C0.548828 1.65295 0.769033 1.12133 1.161 0.729361C1.55297 0.337393 2.08459 0.117188 2.63892 0.117188H19.3596C19.914 0.117188 20.4456 0.337393 20.8376 0.729361C21.2295 1.12133 21.4497 1.65295 21.4497 2.20728ZM19.3596 2.20728H2.63892V16.0019L3.89297 14.7478H19.3596V2.20728Z"
    />
  </symbol>
  <symbol xmlns="http://www.w3.org/2000/svg" viewBox="0 0 45.5 45.5" id="plus-in-circle">
    <g id="Group 370">
      <path
        id="Vector"
        d="M31 24.1429H24.1429V31H21.8571V24.1429H15V21.8571H21.8571V15H24.1429V21.8571H31V24.1429Z"
      />
    </g>
  </symbol>
  <symbol xmlns="http://www.w3.org/2000/svg" viewBox="0 0 23 21" id="sharp-send">
    <g id="ic:sharp-send">
      <path
        id="Vector"
        d="M2.01 21L23 12L2.01 3L2 10L17 12L2 14L2.01 21Z"
      />
    </g>
  </symbol>
  <symbol xmlns="http://www.w3.org/2000/svg" viewBox="0 0 22 22" id="smile-for-chat">
    <g id="ic:outline-emoji-emotions">
      <path
        id="Vector"
        d="M15.5 11C16.3284 11 17 10.3284 17 9.5C17 8.67157 16.3284 8 15.5 8C14.6716 8 14 8.67157 14 9.5C14 10.3284 14.6716 11 15.5 11Z"
      />
      <path
        id="Vector_2"
        d="M8.5 11C9.32843 11 10 10.3284 10 9.5C10 8.67157 9.32843 8 8.5 8C7.67157 8 7 8.67157 7 9.5C7 10.3284 7.67157 11 8.5 11Z"
      />
      <path
        id="Vector_3"
        d="M12 18C14.28 18 16.22 16.34 17 14H7C7.78 16.34 9.72 18 12 18Z"
      />
      <path
        id="Vector_4"
        d="M11.99 2C6.47 2 2 6.48 2 12C2 17.52 6.47 22 11.99 22C17.52 22 22 17.52 22 12C22 6.48 17.52 2 11.99 2ZM12 20C7.58 20 4 16.42 4 12C4 7.58 7.58 4 12 4C16.42 4 20 7.58 20 12C20 16.42 16.42 20 12 20Z"
      />
    </g>
  </symbol>
  <symbol xmlns="http://www.w3.org/2000/svg" viewBox="0 0 26.250668 23.750666" id="table-view">
    <g id="ic:baseline-view-list">
      <path
        id="Vector"
        d="M3.75 17.5H8.75V12.5H3.75V17.5ZM3.75 23.75H8.75V18.75H3.75V23.75ZM3.75 11.25H8.75V6.25H3.75V11.25ZM10 17.5H26.25V12.5H10V17.5ZM10 23.75H26.25V18.75H10V23.75ZM10 6.25V11.25H26.25V6.25H10Z"
      />
    </g>
  </symbol>
  <symbol xmlns="http://www.w3.org/2000/svg" viewBox="0 0 22 22" id="alert-circle">
    <g id="mdi:alert-circle-outline">
      <path
        id="Vector"
        d="M11 15H13V17H11V15ZM11 7H13V13H11V7ZM12 2C6.47 2 2 6.5 2 12C2 14.6522 3.05357 17.1957 4.92893 19.0711C5.85752 19.9997 6.95991 20.7362 8.17317 21.2388C9.38642 21.7413 10.6868 22 12 22C14.6522 22 17.1957 20.9464 19.0711 19.0711C20.9464 17.1957 22 14.6522 22 12C22 10.6868 21.7413 9.38642 21.2388 8.17317C20.7362 6.95991 19.9997 5.85752 19.0711 4.92893C18.1425 4.00035 17.0401 3.26375 15.8268 2.7612C14.6136 2.25866 13.3132 2 12 2ZM12 20C9.87827 20 7.84344 19.1571 6.34315 17.6569C4.84285 16.1566 4 14.1217 4 12C4 9.87827 4.84285 7.84344 6.34315 6.34315C7.84344 4.84285 9.87827 4 12 4C14.1217 4 16.1566 4.84285 17.6569 6.34315C19.1571 7.84344 20 9.87827 20 12C20 14.1217 19.1571 16.1566 17.6569 17.6569C16.1566 19.1571 14.1217 20 12 20Z"
      />
    </g>
  </symbol>
  <symbol xmlns="http://www.w3.org/2000/svg" viewBox="0 0 18 18" id="arrow-top_left-bottom_right">
    <path d="M10 18H18V10H16V14.59L3.41 2H8V0H0V8H2V3.41L14.59 16H10V18Z" />
  </symbol>
  <symbol xmlns="http://www.w3.org/2000/svg" width="23" height="23" viewBox="0 0 23 23" fill="none"
    id="share">
    <path
      d="M17.25 15.4093C16.5217 15.4093 15.87 15.6968 15.3717 16.1473L8.53875 12.1702C8.58667 11.9498 8.625 11.7293 8.625 11.4993C8.625 11.2693 8.58667 11.0489 8.53875 10.8285L15.295 6.88977C15.8125 7.36893 16.4929 7.66602 17.25 7.66602C18.8408 7.66602 20.125 6.38185 20.125 4.79102C20.125 3.20018 18.8408 1.91602 17.25 1.91602C15.6592 1.91602 14.375 3.20018 14.375 4.79102C14.375 5.02102 14.4133 5.24143 14.4613 5.46185L7.705 9.4006C7.1875 8.92143 6.50708 8.62435 5.75 8.62435C4.15917 8.62435 2.875 9.90852 2.875 11.4993C2.875 13.0902 4.15917 14.3743 5.75 14.3743C6.50708 14.3743 7.1875 14.0773 7.705 13.5981L14.5283 17.5848C14.4804 17.786 14.4517 17.9968 14.4517 18.2077C14.4517 19.7506 15.7071 21.006 17.25 21.006C18.7929 21.006 20.0483 19.7506 20.0483 18.2077C20.0483 16.6648 18.7929 15.4093 17.25 15.4093Z"
      fill="#F8F8F8" />
  </symbol>
  <symbol xmlns="http://www.w3.org/2000/svg" width="23" height="23" viewBox="0 0 23 23" fill="none"
    id="instagtam">
    <g clip-path="url(#clip0_1_59086)">
      <path fill-rule="evenodd" clip-rule="evenodd"
        d="M7.15656 1.02223C8.28069 0.970484 8.6391 0.958984 11.5026 0.958984C14.3661 0.958984 14.7245 0.971443 15.8477 1.02223C16.9709 1.07303 17.7375 1.25223 18.4084 1.51194C19.1108 1.7774 19.7481 2.19236 20.2752 2.72903C20.8119 3.25515 21.2259 3.89148 21.4904 4.5949C21.751 5.26573 21.9293 6.0324 21.981 7.15365C22.0328 8.27969 22.0443 8.63811 22.0443 11.5007C22.0443 14.3642 22.0318 14.7226 21.981 15.8467C21.9302 16.9679 21.751 17.7346 21.4904 18.4054C21.2258 19.1089 20.8112 19.7463 20.2752 20.2732C19.7481 20.8099 19.1108 21.2239 18.4084 21.4884C17.7375 21.7491 16.9709 21.9273 15.8496 21.9791C14.7245 22.0308 14.3661 22.0423 11.5026 22.0423C8.6391 22.0423 8.28069 22.0299 7.15656 21.9791C6.03531 21.9283 5.26865 21.7491 4.59781 21.4884C3.89432 21.2239 3.25693 20.8092 2.73002 20.2732C2.19372 19.7468 1.7787 19.1097 1.5139 18.4064C1.25419 17.7356 1.07594 16.9689 1.02419 15.8476C0.972437 14.7216 0.960938 14.3632 0.960938 11.5007C0.960938 8.63715 0.973396 8.27873 1.02419 7.15557C1.07498 6.0324 1.25419 5.26573 1.5139 4.5949C1.77909 3.89156 2.19443 3.25449 2.73098 2.72807C3.25714 2.19188 3.89389 1.77687 4.59685 1.51194C5.26769 1.25223 6.03435 1.07398 7.1556 1.02223H7.15656ZM15.7624 2.91973C14.6507 2.86894 14.3172 2.8584 11.5026 2.8584C8.68798 2.8584 8.35448 2.86894 7.24281 2.91973C6.21452 2.96669 5.65677 3.13823 5.28494 3.28294C4.79331 3.47461 4.4416 3.70173 4.07265 4.07069C3.7229 4.41095 3.45374 4.82517 3.2849 5.28298C3.14019 5.65482 2.96865 6.21257 2.92169 7.24086C2.8709 8.35253 2.86035 8.68603 2.86035 11.5007C2.86035 14.3153 2.8709 14.6488 2.92169 15.7604C2.96865 16.7887 3.14019 17.3465 3.2849 17.7183C3.45356 18.1754 3.72285 18.5904 4.07265 18.9306C4.41285 19.2804 4.82781 19.5497 5.28494 19.7184C5.65677 19.8631 6.21452 20.0346 7.24281 20.0816C8.35448 20.1324 8.68702 20.1429 11.5026 20.1429C14.3182 20.1429 14.6507 20.1324 15.7624 20.0816C16.7907 20.0346 17.3484 19.8631 17.7203 19.7184C18.2119 19.5267 18.5636 19.2996 18.9326 18.9306C19.2824 18.5904 19.5516 18.1754 19.7203 17.7183C19.865 17.3465 20.0366 16.7887 20.0835 15.7604C20.1343 14.6488 20.1449 14.3153 20.1449 11.5007C20.1449 8.68603 20.1343 8.35253 20.0835 7.24086C20.0366 6.21257 19.865 5.65482 19.7203 5.28298C19.5286 4.79136 19.3015 4.43965 18.9326 4.07069C18.5923 3.72097 18.1781 3.45181 17.7203 3.28294C17.3484 3.13823 16.7907 2.96669 15.7624 2.91973ZM10.1561 14.7504C10.9081 15.0634 11.7454 15.1056 12.5251 14.8699C13.3047 14.6341 13.9784 14.135 14.4309 13.4578C14.8834 12.7806 15.0868 11.9672 15.0063 11.1567C14.9258 10.3462 14.5664 9.58875 13.9895 9.01377C13.6217 8.64623 13.177 8.3648 12.6874 8.18975C12.1978 8.0147 11.6755 7.95037 11.1581 8.00141C10.6406 8.05244 10.141 8.21757 9.695 8.4849C9.24904 8.75223 8.8679 9.11511 8.57902 9.54742C8.29014 9.97974 8.1007 10.4707 8.02435 10.985C7.94799 11.4993 7.98662 12.0242 8.13745 12.5218C8.28828 13.0194 8.54756 13.4773 8.89663 13.8627C9.24569 14.248 9.67585 14.5512 10.1561 14.7504ZM7.67119 7.66923C8.17434 7.16608 8.77166 6.76697 9.42906 6.49466C10.0865 6.22236 10.791 6.08221 11.5026 6.08221C12.2142 6.08221 12.9188 6.22236 13.5762 6.49466C14.2335 6.76697 14.8309 7.16608 15.334 7.66923C15.8372 8.17238 16.2363 8.76971 16.5086 9.4271C16.7809 10.0845 16.921 10.7891 16.921 11.5007C16.921 12.2122 16.7809 12.9168 16.5086 13.5742C16.2363 14.2316 15.8372 14.8289 15.334 15.3321C14.3179 16.3482 12.9397 16.9191 11.5026 16.9191C10.0655 16.9191 8.68734 16.3482 7.67119 15.3321C6.65503 14.3159 6.08416 12.9377 6.08416 11.5007C6.08416 10.0636 6.65503 8.68539 7.67119 7.66923ZM18.1228 6.88915C18.2475 6.77153 18.3473 6.6301 18.4163 6.47321C18.4854 6.31632 18.5222 6.14718 18.5247 5.97579C18.5272 5.8044 18.4953 5.63426 18.4309 5.47543C18.3664 5.3166 18.2708 5.17231 18.1496 5.05111C18.0284 4.9299 17.8841 4.83425 17.7252 4.76981C17.5664 4.70538 17.3963 4.67346 17.2249 4.67596C17.0535 4.67846 16.8843 4.71532 16.7275 4.78436C16.5706 4.8534 16.4291 4.95322 16.3115 5.0779C16.0828 5.32039 15.9575 5.64248 15.9624 5.97579C15.9673 6.30911 16.1018 6.62741 16.3375 6.86312C16.5733 7.09884 16.8916 7.23341 17.2249 7.23827C17.5582 7.24313 17.8803 7.11789 18.1228 6.88915Z"
        fill="#F8F8F8" />
    </g>
    <defs>
      <clipPath id="clip0_1_59086">
        <rect width="23" height="23" fill="white" />
      </clipPath>
    </defs>
  </symbol>
  <symbol xmlns="http://www.w3.org/2000/svg" width="23" height="23" viewBox="0 0 23 23" fill="none"
    id="twitter">
    <path
      d="M22.6584 4.7311C21.8581 5.08568 20.9985 5.32527 20.0948 5.43356C21.0273 4.87561 21.7249 3.99746 22.0575 2.96298C21.1814 3.48334 20.2226 3.84962 19.2227 4.04589C18.5503 3.32797 17.6597 2.85212 16.6892 2.69222C15.7187 2.53232 14.7225 2.69732 13.8553 3.16159C12.9882 3.62587 12.2986 4.36345 11.8935 5.25982C11.4885 6.15619 11.3908 7.16119 11.6155 8.11881C9.84034 8.02968 8.10379 7.56829 6.51851 6.76459C4.93323 5.96089 3.53466 4.83284 2.41356 3.45364C2.03023 4.11489 1.80981 4.88156 1.80981 5.69806C1.80938 6.4331 1.99039 7.15688 2.33678 7.80518C2.68316 8.45348 3.18422 9.00626 3.79548 9.41448C3.08658 9.39192 2.39332 9.20037 1.7734 8.85577V8.91327C1.77332 9.94419 2.12993 10.9434 2.7827 11.7413C3.43546 12.5392 4.34419 13.0867 5.35469 13.2909C4.69706 13.4689 4.00759 13.4951 3.33835 13.3676C3.62346 14.2546 4.17881 15.0303 4.92666 15.5861C5.67452 16.1418 6.57744 16.4498 7.50902 16.4669C5.92761 17.7083 3.97458 18.3817 1.9641 18.3787C1.60797 18.3788 1.25214 18.358 0.898438 18.3164C2.93919 19.6286 5.31476 20.3249 7.74094 20.3222C15.9539 20.3222 20.4436 13.52 20.4436 7.62048C20.4436 7.42881 20.4389 7.23523 20.4302 7.04356C21.3035 6.41199 22.0574 5.62992 22.6564 4.73398L22.6584 4.7311Z"
      fill="#F8F8F8" />
  </symbol>
  <symbol xmlns="http://www.w3.org/2000/svg" width="24" height="24" viewBox="0 0 24 24" fill="none"
    id="static">
    <path
      d="M19 3H5C3.9 3 3 3.9 3 5V19C3 20.1 3.9 21 5 21H19C20.1 21 21 20.1 21 19V5C21 3.9 20.1 3 19 3ZM9 17H7V10H9V17ZM13 17H11V7H13V17ZM17 17H15V13H17V17Z"
      fill="#F8F8F8" fill-opacity="0.6" />
  </symbol>
  <symbol xmlns="http://www.w3.org/2000/svg" width="24" height="24" viewBox="0 0 24 24" fill="none"
    id="history-matches">
    <path
      d="M13.5 8H12V13L16.28 15.54L17 14.33L13.5 12.25V8ZM13 3C10.6131 3 8.32387 3.94821 6.63604 5.63604C4.94821 7.32387 4 9.61305 4 12H1L4.96 16.03L9 12H6C6 10.1435 6.7375 8.36301 8.05025 7.05025C9.36301 5.7375 11.1435 5 13 5C14.8565 5 16.637 5.7375 17.9497 7.05025C19.2625 8.36301 20 10.1435 20 12C20 13.8565 19.2625 15.637 17.9497 16.9497C16.637 18.2625 14.8565 19 13 19C11.07 19 9.32 18.21 8.06 16.94L6.64 18.36C7.47147 19.2006 8.46218 19.8671 9.5542 20.3203C10.6462 20.7736 11.8176 21.0047 13 21C15.3869 21 17.6761 20.0518 19.364 18.364C21.0518 16.6761 22 14.3869 22 12C22 9.61305 21.0518 7.32387 19.364 5.63604C17.6761 3.94821 15.3869 3 13 3Z"
      fill="#F8F8F8" fill-opacity="0.6" />
  </symbol>
  <symbol xmlns="http://www.w3.org/2000/svg" width="24" height="24" viewBox="0 0 24 24" fill="none"
    id="account">
    <path
      d="M12 2C6.48 2 2 6.48 2 12C2 17.52 6.48 22 12 22C17.52 22 22 17.52 22 12C22 6.48 17.52 2 12 2ZM12 5C13.66 5 15 6.34 15 8C15 9.66 13.66 11 12 11C10.34 11 9 9.66 9 8C9 6.34 10.34 5 12 5ZM12 19.2C10.8119 19.2 9.64218 18.906 8.59528 18.3441C7.54837 17.7823 6.65678 16.9701 6 15.98C6.03 13.99 10 12.9 12 12.9C13.99 12.9 17.97 13.99 18 15.98C17.3432 16.9701 16.4516 17.7823 15.4047 18.3441C14.3578 18.906 13.1881 19.2 12 19.2Z"
      fill="#F8F8F8" fill-opacity="0.6" />
  </symbol>
  <symbol xmlns="http://www.w3.org/2000/svg" width="24" height="24" viewBox="0 0 24 24" fill="none"
    id="wallet">
    <path
      d="M21 18V19C21 19.5304 20.7893 20.0391 20.4142 20.4142C20.0391 20.7893 19.5304 21 19 21H5C4.46957 21 3.96086 20.7893 3.58579 20.4142C3.21071 20.0391 3 19.5304 3 19V5C3 4.46957 3.21071 3.96086 3.58579 3.58579C3.96086 3.21071 4.46957 3 5 3H19C19.5304 3 20.0391 3.21071 20.4142 3.58579C20.7893 3.96086 21 4.46957 21 5V6H12C11.4696 6 10.9609 6.21071 10.5858 6.58579C10.2107 6.96086 10 7.46957 10 8V16C10 16.5304 10.2107 17.0391 10.5858 17.4142C10.9609 17.7893 11.4696 18 12 18H21ZM12 16H22V8H12V16ZM16 13.5C15.6022 13.5 15.2206 13.342 14.9393 13.0607C14.658 12.7794 14.5 12.3978 14.5 12C14.5 11.6022 14.658 11.2206 14.9393 10.9393C15.2206 10.658 15.6022 10.5 16 10.5C16.3978 10.5 16.7794 10.658 17.0607 10.9393C17.342 11.2206 17.5 11.6022 17.5 12C17.5 12.3978 17.342 12.7794 17.0607 13.0607C16.7794 13.342 16.3978 13.5 16 13.5Z"
      fill="#F8F8F8" fill-opacity="0.6" />
  </symbol>
  <symbol xmlns="http://www.w3.org/2000/svg" width="24" height="24" viewBox="0 0 24 24" fill="none"
    id="setting">
    <path
      d="M11.7293 15.5C10.8011 15.5 9.91084 15.1313 9.25446 14.4749C8.59808 13.8185 8.22933 12.9283 8.22933 12C8.22933 11.0717 8.59808 10.1815 9.25446 9.52513C9.91084 8.86875 10.8011 8.5 11.7293 8.5C12.6576 8.5 13.5478 8.86875 14.2042 9.52513C14.8606 10.1815 15.2293 11.0717 15.2293 12C15.2293 12.9283 14.8606 13.8185 14.2042 14.4749C13.5478 15.1313 12.6576 15.5 11.7293 15.5ZM19.1593 12.97C19.1993 12.65 19.2293 12.33 19.2293 12C19.2293 11.67 19.1993 11.34 19.1593 11L21.2693 9.37C21.4593 9.22 21.5093 8.95 21.3893 8.73L19.3893 5.27C19.2693 5.05 18.9993 4.96 18.7793 5.05L16.2893 6.05C15.7693 5.66 15.2293 5.32 14.5993 5.07L14.2293 2.42C14.209 2.30222 14.1477 2.19543 14.0561 2.11855C13.9646 2.04168 13.8489 1.99968 13.7293 2H9.72933C9.47933 2 9.26933 2.18 9.22933 2.42L8.85933 5.07C8.22933 5.32 7.68933 5.66 7.16933 6.05L4.67933 5.05C4.45933 4.96 4.18933 5.05 4.06933 5.27L2.06933 8.73C1.93933 8.95 1.99933 9.22 2.18933 9.37L4.29933 11C4.25933 11.34 4.22933 11.67 4.22933 12C4.22933 12.33 4.25933 12.65 4.29933 12.97L2.18933 14.63C1.99933 14.78 1.93933 15.05 2.06933 15.27L4.06933 18.73C4.18933 18.95 4.45933 19.03 4.67933 18.95L7.16933 17.94C7.68933 18.34 8.22933 18.68 8.85933 18.93L9.22933 21.58C9.26933 21.82 9.47933 22 9.72933 22H13.7293C13.9793 22 14.1893 21.82 14.2293 21.58L14.5993 18.93C15.2293 18.67 15.7693 18.34 16.2893 17.94L18.7793 18.95C18.9993 19.03 19.2693 18.95 19.3893 18.73L21.3893 15.27C21.5093 15.05 21.4593 14.78 21.2693 14.63L19.1593 12.97Z"
      fill="#F8F8F8" fill-opacity="0.6" />
  </symbol>
  <symbol xmlns="http://www.w3.org/2000/svg" width="24" height="24" viewBox="0 0 24 24" fill="none"
    id="blacklist">
    <path
      d="M12 2C6.48 2 2 6.48 2 12C2 17.52 6.48 22 12 22C17.52 22 22 17.52 22 12C22 6.48 17.52 2 12 2ZM4 12C4 7.58 7.58 4 12 4C13.85 4 15.55 4.63 16.9 5.69L5.69 16.9C4.59177 15.5031 3.99639 13.7769 4 12ZM12 20C10.15 20 8.45 19.37 7.1 18.31L18.31 7.1C19.4082 8.49686 20.0036 10.2231 20 12C20 16.42 16.42 20 12 20Z"
      fill="#F8F8F8" fill-opacity="0.6" />
  </symbol>
  <symbol xmlns="http://www.w3.org/2000/svg" width="24" height="24" viewBox="0 0 24 24" fill="none"
    id="exit">
    <path
      d="M5 21L19 21C20.11 21 21 20.11 21 19L21 15L19 15L19 19L5 19L5 5L19 5L19 9L21 9L21 5C21 4.46957 20.7893 3.96086 20.4142 3.58579C20.0391 3.21071 19.5304 3 19 3L5 3C4.46957 3 3.96086 3.21071 3.58579 3.58579C3.21072 3.96086 3 4.46956 3 5L3 19C3 19.5304 3.21071 20.0391 3.58579 20.4142C3.96086 20.7893 4.46957 21 5 21ZM13.92 8.42L12.5 7L7.5 12L12.5 17L13.92 15.59L11.33 13L21 13L21 11L11.33 11L13.92 8.42Z"
      fill="#F8F8F8" fill-opacity="0.6" />
  </symbol>

  <symbol xmlns="http://www.w3.org/2000/svg" width="24" height="24" viewBox="0 0 24 24" fill="none"
    id="arrow-game">
    <path d="M16.59 15.4199L12 10.8299L7.41 15.4199L6 13.9999L12 7.99992L18 13.9999L16.59 15.4199Z"
      fill="#F8F8F8" />
  </symbol>
  <symbol xmlns="http://www.w3.org/2000/svg" width="2500" height="2500" viewBox="0 0 1245 1245.004"
    id="cs">
    <path fill="#2A2A2A" d="M6.228 6.225h1232.549v1232.554H6.228z" />
    <path fill="#E2AD00"
      d="M1232.551 12.45v1220.102H12.449V12.45h1220.102M1245 0H0V1245.003h1244.998V0h.002z" />
    <linearGradient id="a" gradientUnits="userSpaceOnUse" x1="367.521" y1="705.74" x2="367.521"
      y2="911.455" gradientTransform="matrix(5.9528 0 0 -5.9528 -1514.859 5432.435)">
      <stop offset="0" stop-color="#1d1d1b" stop-opacity="0" />
      <stop offset="1" />
    </linearGradient>
    <path opacity=".86" fill="url(#a)"
      d="M448.201 1231.306L113.294 895.16l17.43-133.219 160.606-18.674 31.128 7.469 33.612 33.613 216.631-33.613 39.84 39.84-4.983-18.674L485.551 647.4l69.72-173.053 53.533-283.861 75.946-59.76 53.537 53.534 99.598 12.451 57.271 1.244 337.395 336.152-2.488 695.955z" />
    <path fill="#E2AD00"
      d="M544.068 323.701c-17.431-4.981-16.187-4.981-13.699-21.166 1.248-9.959 2.49-18.674 2.49-28.635 0-7.467 2.492-9.961 9.961-9.961 13.694 0 12.451 0 11.205-13.694-2.49-21.164 1.246-41.086 13.693-58.517 7.472-9.961 16.188-14.939 28.636-16.184 2.486 0 4.98 0 7.469 1.246 2.49 0 4.979 1.243 7.469 2.489 0-2.489 1.246-6.228 0-8.715-7.469-24.898 8.715-52.291 34.861-54.779 8.715-1.246 17.43 4.979 24.898 7.469 14.939 3.734 16.184 17.43 17.43 29.881 1.246 7.467 1.246 16.182-9.959 19.917-2.49 1.246-3.734 8.715-4.98 13.695 14.939 3.734 14.939-2.488 28.633-7.468 13.695 2.488 11.205 6.227 19.92 6.227h93.375c4.979 0 8.715 2.489 13.693 3.732 0-4.979 7.471-1.243 11.205 8.716 11.203-1.244 22.41-1.244 32.371-2.489 4.98 0 11.205 0 16.184 1.248 1.246 0 2.49 2.487 2.49 2.487 0 1.246-2.49 3.735-2.49 3.735h-16.184c-11.203 0-22.41-1.246-32.371 0-17.432 2.49-34.859 6.227-52.289 6.227-17.432-1.246-29.879 16.185-26.146 32.37 1.246 3.736 2.488 7.472 3.734 11.205-9.961 2.49-11.205 9.961-12.447 17.431-1.246 13.696-12.451 21.164-22.412 26.146-6.227 2.488-14.939 0-22.41-2.49-11.203-3.735-21.166-9.959-32.373-14.939-2.488 6.225-6.223 12.448 3.736 16.184 2.488 1.246 3.736 4.979 3.736 7.47-1.248 18.676-2.49 36.105-4.98 54.779-1.248 6.226-4.98 9.961-12.451 6.226-1.248 0-6.227 2.489-6.227 3.735 1.248 6.224 1.248 13.694 4.979 18.675 17.432 19.92 28.637 43.574 37.352 67.232 2.488 6.223 7.471 12.449 9.961 19.918 6.227 18.676 1.246 36.106 0 54.78-1.246 7.469 0 14.938 0 23.654 0 4.98 0 9.963-1.246 14.941-1.244 6.226-2.488 12.451-3.734 18.676 0 19.92 9.963 34.86 28.637 42.331 3.732 1.246 6.223 2.486 8.715 4.979 2.488 2.49 3.732 6.227 2.488 8.715 0 1.246-4.982 3.736-6.227 3.736l-44.822-3.736h-18.676c-7.467 0-11.203-2.488-8.715-11.203 2.49-14.942 9.963-29.877 6.229-46.063-1.248-7.47-3.736-14.942-4.98-22.41-2.49-13.694-4.982-26.146-4.982-39.84 0-7.472 3.736-13.696 4.982-21.166 2.488-9.962-1.246-12.449-11.205-14.942-3.734 0-8.717-3.734-12.449-7.469-7.471-9.961-13.693-19.918-21.166-31.125-1.244-1.246-2.487-4.979-3.733-4.979-9.961 1.244-13.696-7.472-18.676-16.187-7.47 16.187-14.942 29.881-21.164 43.575-1.246 3.735-1.246 8.715-3.736 12.45-1.246 3.734-3.735 8.715-6.225 12.449-6.229 9.963-12.451 18.678-18.679 27.394 0 1.243-1.243 1.243-1.243 2.487 3.735 21.166-11.203 37.351-17.431 54.78-1.246 6.225-9.961 9.959-12.451 16.182-6.226 13.699-8.715 27.394-2.487 42.333 3.734 8.715 1.246 12.447-8.715 12.447h-21.164c-7.472 0-11.207-4.979-9.961-12.447 2.487-13.695 6.226-27.391 8.715-41.085 1.246-6.228 0-13.694 1.246-21.166 1.244-7.469 2.487-13.693 3.732-21.164 2.488-7.471 3.736-14.939 7.47-22.412 3.733-8.715 7.469-17.43 12.448-26.143 3.736-6.228 7.472-11.207 9.963-17.43 1.244-2.492 2.488-6.229 2.488-9.963l3.736-48.556c0-3.734-1.246-8.715-1.246-12.451 0-8.715-1.246-17.43-1.246-26.145 0-2.488 1.246-6.224 2.49-6.224 8.715-2.491 4.979-8.716 4.979-12.45-1.246-9.961-2.487-18.676-3.735-28.635 3.75-7.472 2.507-16.187 13.713-19.921zm181.768-78.435c4.979-8.715 11.203-14.942 14.941-22.41 1.242-2.489 0-7.471-2.488-8.715-1.248-1.248-6.229 0-8.715 1.244-4.984 3.736-7.473 8.715-12.451 14.939 2.489 3.737 4.977 8.716 8.713 14.942z" />
    <g fill="#E2AD00">
      <path
        d="M808.006 1030.863h-64.74v18.676h102.09c0 3.732-1.246 6.225-2.488 9.959-1.246 2.49-3.734 4.98-6.227 6.227-2.49 1.244-6.227 2.49-9.961 3.736-3.734 1.244-7.469 1.244-12.451 1.244H739.53c-3.734 0-7.471 0-11.205-1.244-3.732-1.246-6.227-2.49-9.959-3.736-2.488-1.246-4.98-3.734-6.229-6.227-1.246-2.488-2.486-4.98-2.486-8.713v-59.762c0-2.488 1.244-6.227 2.486-8.715 1.246-2.488 3.736-4.979 6.229-6.227 2.486-1.244 6.227-3.736 9.959-3.736 3.734-1.244 7.471-1.244 11.205-1.244h74.699c8.717 0 16.188 1.244 22.412 4.98 4.979 3.734 8.715 8.715 8.715 16.184h-102.09v18.676h64.74v19.922zM993.51 1009.697c0 7.471-3.736 12.449-9.961 16.186-7.469 3.734-16.186 4.98-27.389 4.98h-51.045c0-2.49 0-4.98 1.244-7.471 1.246-2.488 2.488-4.98 3.734-7.469 1.246-2.49 3.734-3.736 6.227-4.98 2.488-1.246 4.98-2.488 8.717-2.488h34.859v-18.678h-68.475v56.025c0 9.961-2.492 16.186-8.715 19.92-2.492 1.244-6.229 2.486-9.963 3.734-3.734 0-7.469 1.244-11.203 1.244h-3.736V969.855h104.582c8.715 0 16.184 1.246 22.408 4.982 6.229 3.734 8.715 8.713 8.715 16.184v18.676h.001zM1142.912 1049.539c0 7.469-2.49 12.449-8.715 16.184-6.229 3.736-13.695 4.98-23.658 4.98h-72.209c-3.732 0-7.469 0-11.205-1.244-3.732-1.248-7.469-2.49-9.959-3.736s-4.98-3.734-7.471-6.225c-1.244-2.49-2.486-4.982-2.486-8.717h103.332v-18.676h-72.209c-3.732 0-7.469 0-11.205-1.244-3.732-1.246-7.469-2.49-9.957-3.736-2.49-1.244-4.982-3.732-6.229-6.227-1.246-2.488-2.488-6.225-2.488-9.961v-16.182c0-3.736 1.244-7.471 2.488-9.963 1.244-2.488 3.734-4.98 6.229-7.467 2.486-2.492 6.225-3.736 9.957-3.736 3.736-1.248 7.473-1.248 12.451-1.248h73.455c9.961 0 17.43 1.248 23.654 4.984 6.229 3.73 8.715 8.715 8.715 16.182h-102.086v18.676h69.719c3.734 0 7.473 0 12.451 1.246 3.734 1.246 7.467 2.488 9.961 3.736 2.488 1.242 4.979 3.732 7.469 6.225 2.488 2.49 2.488 6.227 2.488 8.717v17.43h-2.492v.002z" />
    </g>
    <g>
      <path fill="#E2AD00"
        d="M331.173 773.144c0 6.229-2.492 11.205-6.228 14.943-3.736 3.736-7.472 6.225-11.203 7.471-4.984 3.732-9.963 4.98-16.188 7.467-6.227 1.248-12.448 2.49-19.92 2.49H273.9v-32.373H159.361v99.604h114.54v-34.861h56.025V871.5c0 6.225-1.246 11.207-3.734 16.186-2.488 4.98-6.227 8.717-11.203 11.203-4.979 2.49-9.959 4.982-16.185 6.229-6.226 1.244-12.45 2.488-19.918 2.488h-125.75c-6.226 0-13.696-1.246-19.92-2.488-6.223-1.246-11.205-3.736-16.184-7.473-4.979-2.486-8.715-6.225-11.203-11.201-2.49-3.734-3.735-8.719-3.735-14.943v-99.598c0-4.98 1.246-9.963 3.735-13.695 2.488-4.982 6.226-8.715 11.203-11.207 4.979-2.488 9.963-4.979 16.184-7.469 6.226-1.244 12.451-2.488 19.92-2.488H278.88c16.185 0 28.635 2.488 38.594 8.715 8.715 6.223 13.699 14.938 13.699 27.385zM581.416 871.5c0 12.451-4.981 21.166-14.94 27.395-9.963 6.227-23.657 8.715-39.84 8.715H405.871c-6.228 0-13.697-1.248-19.922-2.488-6.223-1.246-12.449-3.736-17.428-6.227-4.981-2.49-8.716-6.229-12.451-11.205-2.488-3.734-4.979-9.963-4.979-14.941h173.055v-32.371H403.379c-6.223 0-13.693-1.246-19.918-2.49-6.225-1.246-11.205-3.734-16.184-6.225-4.979-2.492-8.715-6.229-11.205-11.205-2.487-4.979-3.735-9.961-3.735-16.184v-28.637c0-6.223 1.248-12.447 3.735-17.428 2.49-4.98 6.228-8.715 11.205-12.451 4.977-3.734 9.961-4.979 16.184-7.473 6.227-1.242 12.449-2.486 19.918-2.486h123.259c16.183 0 29.877 2.486 38.593 8.715 9.963 4.982 14.941 14.941 14.941 27.393H409.607v31.125h117.03c6.225 0 13.695 1.246 19.918 1.246 6.226 1.244 12.449 3.732 17.431 6.225 4.979 2.49 8.715 6.227 12.449 11.205 3.734 4.98 4.98 9.961 4.98 14.939V871.5h.001zM601.338 821.703v-51.045h41.084v51.045h-41.084zm0 75.943v-51.045h41.084v51.045h-41.084zM890.176 871.5c0 6.227-1.248 11.207-3.734 16.188-2.49 3.732-6.229 7.471-11.205 11.205-4.979 2.486-9.961 4.979-16.184 6.227-6.227 1.242-12.451 2.488-19.918 2.488H713.387c-6.225 0-13.693-1.248-19.92-2.488-6.225-1.246-11.201-3.736-16.182-7.473-4.98-2.486-8.715-6.227-11.205-11.203-2.49-3.732-3.734-8.717-3.734-14.941v-99.6c0-4.979 1.244-9.961 3.734-13.695s6.227-7.471 11.205-11.203c4.979-2.49 9.959-4.982 16.182-7.471 6.229-1.246 12.451-2.488 19.92-2.488h125.748c16.182 0 28.633 2.488 37.348 8.715 8.715 6.225 13.695 14.941 13.695 27.389H719.612v99.602h114.543v-32.369h-41.088c-13.695 0-24.9-2.49-34.859-8.715-9.961-6.229-14.939-12.451-16.188-21.166v-6.225h148.156V871.5zM1139.176 872.746c0 6.229-1.244 11.205-3.734 14.941-2.488 3.734-6.225 7.471-11.205 9.959-4.979 2.49-9.959 4.982-16.184 6.229-6.227 1.246-13.693 2.488-19.92 2.488h-126.99c-7.469 0-13.693-1.244-19.92-2.488-6.225-1.246-11.203-3.734-16.182-7.469-4.982-2.49-8.715-6.227-11.205-11.205-2.488-3.732-3.736-8.717-3.736-14.939v-98.355c0-4.979 1.246-9.961 3.736-13.693 2.49-4.982 6.225-8.717 11.205-11.207 4.979-2.488 9.959-4.98 16.182-7.469 6.229-1.244 12.451-2.488 19.92-2.488h125.744c14.941 0 27.393 2.488 37.35 8.715 9.963 6.227 14.941 14.939 14.941 26.146v100.838h-.002v-.003zm-56.023-99.602H968.614v99.604h114.539v-99.604z" />
    </g>
  </symbol>
  <symbol viewBox="0 0 350 397" fill="none" xmlns="http://www.w3.org/2000/svg" id="star">
    <path
      d="M99.875 52.2725L198.37 141.675L181.319 183.558L141.434 133.844L142.512 139.132L116.455 163.674L99.875 52.2725Z"
      fill="#2604FA" fill-opacity="0.2" />
    <path d="M143.818 145.744L167.999 177.192L82.5713 273.359L11 273.758L143.818 145.744Z"
      fill="#2604FA" fill-opacity="0.2" />
    <path
      d="M212.596 127.211L202.097 136.962L176.963 113.318L284.512 10.1562L151.079 389L127.398 232.079L154.245 203.431L162.895 245.217L212.596 127.211Z"
      fill="#2604FA" fill-opacity="0.2" />
    <path d="M234.598 175.93L217.008 226.426L254.429 272.709L340.992 272.817L234.598 175.93Z"
      fill="#2604FA" fill-opacity="0.2" />
  </symbol>
  <symbol xmlns="http://www.w3.org/2000/svg" viewBox="0 0 20 20" fill="none" id="like">
    <path
      d="M4.16927 7.49967V17.4997H0.835938V7.49967H4.16927ZM7.5026 17.4997C7.06058 17.4997 6.63665 17.3241 6.32409 17.0115C6.01153 16.699 5.83594 16.275 5.83594 15.833V7.49967C5.83594 7.04134 6.01927 6.62467 6.3276 6.32467L11.8109 0.833008L12.6943 1.71634C12.9193 1.94134 13.0609 2.24967 13.0609 2.59134L13.0359 2.85801L12.2443 6.66634H17.5026C17.9446 6.66634 18.3686 6.84194 18.6811 7.1545C18.9937 7.46706 19.1693 7.89098 19.1693 8.33301V9.99967C19.1693 10.2163 19.1276 10.4163 19.0526 10.608L16.5359 16.483C16.2859 17.083 15.6943 17.4997 15.0026 17.4997H7.5026ZM7.5026 15.833H15.0276L17.5026 9.99967V8.33301H10.1776L11.1193 3.89967L7.5026 7.52467V15.833Z"
      fill="#F8F8F8" />
  </symbol>
  <symbol xmlns="http://www.w3.org/2000/svg" viewBox="0 0 36 36" id="arrow-left">
    <path d="M23.115 24.87L16.245 18L23.115 11.115L21 9L12 18L21 27L23.115 24.87Z" />
  </symbol>
  <symbol xmlns="http://www.w3.org/2000/svg" viewBox="0 0 36 36" id="arrow-right">
    <path d="M12.885 11.13L19.755 18L12.885 24.885L15 27L24 18L15 9L12.885 11.13Z" />
  </symbol>
    <symbol xmlns="http://www.w3.org/2000/svg"   viewBox="0 0 46 46" id="plus-in-dashcircle">
      <circle cx="23" cy="23" r="22.5" stroke-dasharray="6 6" fill="none"/>
      <path d="M31 24.1429H24.1429V31H21.8571V24.1429H15V21.8571H21.8571V15H24.1429V21.8571H31V24.1429Z" fill="#F8F8F8"/>
    </symbol>
</svg>