<svg width="20" height="20" viewBox="0 0 20 20" fill="none" xmlns="http://www.w3.org/2000/svg">
<g id="ic:baseline-settings-input-component">
<path id="Vector" d="M4.72727 3.68182C4.72727 3.30682 4.42045 3 4.04545 3C3.67045 3 3.36364 3.30682 3.36364 3.68182V6.40909H2V10.5H6.09091V6.40909H4.72727V3.68182ZM7.45455 13.2273C7.45455 14.1136 8.02727 14.8636 8.81818 15.15V18H10.1818V15.15C10.9727 14.8705 11.5455 14.1205 11.5455 13.2273V11.8636H7.45455V13.2273ZM2 13.2273C2 14.1136 2.57273 14.8636 3.36364 15.15V18H4.72727V15.15C5.51818 14.8636 6.09091 14.1136 6.09091 13.2273V11.8636H2V13.2273ZM15.6364 6.40909V3.68182C15.6364 3.30682 15.3295 3 14.9545 3C14.5795 3 14.2727 3.30682 14.2727 3.68182V6.40909H12.9091V10.5H17V6.40909H15.6364ZM10.1818 3.68182C10.1818 3.30682 9.875 3 9.5 3C9.125 3 8.81818 3.30682 8.81818 3.68182V6.40909H7.45455V10.5H11.5455V6.40909H10.1818V3.68182ZM12.9091 13.2273C12.9091 14.1136 13.4818 14.8636 14.2727 15.15V18H15.6364V15.15C16.4273 14.8705 17 14.1205 17 13.2273V11.8636H12.9091V13.2273Z" fill="#F8F8F8"/>
</g>
</svg>
